<svg xmlns="http://www.w3.org/2000/svg" width="95.323" height="64.288" viewBox="0 0 95.323 64.288"><defs><style>.a{fill:#2699fb;}</style></defs><path class="a" d="M-809.727,502.909a2.627,2.627,0,0,1-.517-.586,4.717,4.717,0,0,1-1.138-1.759c-.414-1.368-1.655-2.15-2.586-1.759-.724.293-2.173.977-2.173,2.247v.2c0,.879.1,2.638-.828,3.224a16.611,16.611,0,0,1-2.9.879,9.093,9.093,0,0,0-3.207,1.075,3.513,3.513,0,0,0-.724.977,4.706,4.706,0,0,1-2.793,2.345,2.38,2.38,0,0,0-1.448,1.759,1.3,1.3,0,0,1-.517.879,18.211,18.211,0,0,1-4.138,2.638H-833a2.061,2.061,0,0,1,.31-1.27,3.2,3.2,0,0,0-.621-3.517c-.31-.293-.828-.1-1.138,0h0l-.1-.391c-.31-1.172-.828-2.736-2.069-2.736h-.31a1.4,1.4,0,0,0-1.034.977.647.647,0,0,1-.517.488c-1.345.293-1.862,1.563-1.655,3.713.414,3.42-.31,3.713-.31,3.713-.414.1-.724-.293-.931-1.075a10.288,10.288,0,0,1,.207-4.69,1.5,1.5,0,0,0,0-1.856c-.1-.2-.1-.2-.1-.293a6.308,6.308,0,0,1,2.9-1.075,1.42,1.42,0,0,0,1.035-.391,1.062,1.062,0,0,0,.31-1.075c-.1-.782-1.035-.782-2.173-.782a8.279,8.279,0,0,1-1.552-.1,3.3,3.3,0,0,1-2.379-1.075.966.966,0,0,0-.724-.293c-.621,0-1.241.489-2.069,1.172l-.517.488c-.207.2-.517.489-.724.489a.368.368,0,0,1-.207-.1,1.336,1.336,0,0,0-.724-.391,4.593,4.593,0,0,1,1.138-.782c.828-.489,1.448-.977,1.448-1.563a1.336,1.336,0,0,0-.207-.586,1.963,1.963,0,0,0-1.345-.293h-.621a3.718,3.718,0,0,1-1.035-.1,4.143,4.143,0,0,0-1.655-.293c-1.035-.1-2.276-.2-2.793-.782a1.413,1.413,0,0,0-1.138-.684c-.207,0-.414.1-.621.1a11.3,11.3,0,0,1-4.552.293c-2.69-.2-3.828-.2-4.656-.2a27.193,27.193,0,0,1-3.414-.2c-3.828-.391-14.173-1.954-18.725-2.931-.621-.1-6.311-1.368-7.552-1.856a4.4,4.4,0,0,0-1.241-.293.857.857,0,0,0-.828.489c0,.1-.1.1-.1.2s-.1.1-.207.2h-.1c-.1,0-.207-.1-.414-.2a1.514,1.514,0,0,0-1.138-.391h-.1a1.1,1.1,0,0,0-.931.488,2.1,2.1,0,0,0-.1,1.563c.1.2,0,.391-.1.684a.346.346,0,0,1-.1.293v.586a2.563,2.563,0,0,1-.1.879,5.043,5.043,0,0,0-.31.977,4.09,4.09,0,0,1-.207.977l-.1.293a28.649,28.649,0,0,1-2.69,4.885c-.724.782-.828,1.075-.724,1.563a2.087,2.087,0,0,1-.1.684c0,.2-.207.489-.31.977a7.952,7.952,0,0,0-.931,3.224,3.338,3.338,0,0,0,.207,1.075,4.718,4.718,0,0,1,.207.879,3.774,3.774,0,0,0,.31,2.735,16.31,16.31,0,0,1,1.035,4.494,4.409,4.409,0,0,0,.828,1.954,3.988,3.988,0,0,1,.621,1.466v.391c-.1.879,0,1.465,1.966,2.736a8.453,8.453,0,0,1,3.207,3.224.839.839,0,0,1,.1.489c.207.977.621,1.27,2.793,1.27a8.428,8.428,0,0,1,1.966.1l.1.1a.1.1,0,0,0,.1.1c.31.391,1.035,1.368,3.621,2.345.931.391,1.448.684,2.069.977,1.138.684,2.173,1.27,5.793,1.661.31,0,.517-.1.517-.391l.1-.488c.621,0,1.862.1,2.379.1.1.1.414.489.621.684a10.477,10.477,0,0,0,2.069,2.149,2.321,2.321,0,0,1,.724,1.172,3.14,3.14,0,0,0,1.966,2.247,2.551,2.551,0,0,0,1.138.2,2.5,2.5,0,0,0,1.552-.684,1.3,1.3,0,0,1,1.035-.489h0c.931,0,1.138.293,1.759,1.563.207.391.414.782.621,1.27l.621,1.172c1.035,2.247,2.586,5.276,5.38,5.276a.966.966,0,0,0,.724-.293c.31-.391.414-.879.207-2.149-.207-1.172.414-2.052,1.759-2.931.517-.293,1.035-.782,1.655-1.172a7.1,7.1,0,0,1,3.1-1.856h.1a2.232,2.232,0,0,1,1.345.293,3.2,3.2,0,0,0,1.241.293h.724a3.071,3.071,0,0,1,1.759.391,6.683,6.683,0,0,0,2.69.586c1.138,0,1.448-.391,1.552-.684a4.966,4.966,0,0,0-.517-2.443c0-.1-.1-.2,0-.2.1-.2.621-.293,1.448-.1a5.69,5.69,0,0,0,3.828-.293,2.072,2.072,0,0,1,.931.586,3.328,3.328,0,0,0,1.759.879,2.4,2.4,0,0,0,1.345-.586l.31-.293a.836.836,0,0,1,.31.1c1.138.586,2.276,1.856,2.173,2.54a3.249,3.249,0,0,0,1.034,3.224,2.06,2.06,0,0,1,.621.782,5.993,5.993,0,0,0,.931,1.172,5.158,5.158,0,0,0,.931.782.1.1,0,0,1,.1.1v.293c0,1.075.621,1.172.931,1.172a1.73,1.73,0,0,0,1.035-.391c1.035-.586,1.448-1.759,1.345-3.42a5.215,5.215,0,0,0-1.035-2.443,11.541,11.541,0,0,1-1.241-2.247,3.375,3.375,0,0,0-.414-.879c-.828-1.954-1.655-4.006-1.241-5.862a4.164,4.164,0,0,1,2.173-2.638,10.882,10.882,0,0,0,1.138-.879,9.547,9.547,0,0,0,.724-.879c.828-.977,1.966-2.247,2.586-2.833l.31-.293c1.035-.879,2.793-2.345,1.966-4.2-.621-1.27,0-2.931.31-4.006a2.38,2.38,0,0,0,.207-.684,3.146,3.146,0,0,0,.1-.977,2.35,2.35,0,0,1,.517-1.856,2.139,2.139,0,0,0,.414-2.052c-.1-.782-.207-1.172.207-1.368a14.214,14.214,0,0,1,2.483-1.075,7.136,7.136,0,0,0,2.173-.977,1.219,1.219,0,0,0,.414-.977q0-.879-1.241-1.759c-.414-.293-.414-.391-.207-.684.1-.2.207-.293.207-.488a1.179,1.179,0,0,0,.1-.586c.1-.391.1-.684.517-.977a2.707,2.707,0,0,0,.931-.977c.207-.293.31-.489.621-.586.931-.293,1.448-.782,1.552-1.27C-809.21,503.788-809.417,503.3-809.727,502.909Zm-6.725,2.247h0c.31.879.931,2.54,1.138,3.126.207.391.414.684.724.782,0,.1-.1.2-.1.391-.1,0-.207.1-.31.1a1.677,1.677,0,0,1-.828.2c-.517.1-1.034.2-1.345.293a8.3,8.3,0,0,1,.517-3.029,1.366,1.366,0,0,0-.207-1.075c-.1-.2-.1-.293-.207-.488A1.721,1.721,0,0,0-816.452,505.156Zm-2.793.879c.621-.2,1.241-.293,1.759-.489.1.2.1.391.207.489a1.048,1.048,0,0,1,.1.782,7.806,7.806,0,0,0-.517,3.322l-.931.391-.724-2.052.1-2.443Zm-9.932,7.816c.31.488.621.977,2.069.684a44.471,44.471,0,0,1,5.587-.977c.1,0,.31.2.517.391a3.384,3.384,0,0,0,.828.586h0a1.983,1.983,0,0,0-.517,1.466.988.988,0,0,0,.414.489c.1.1.207.2.207.293a1.163,1.163,0,0,1-.414.879.755.755,0,0,0-.517,0l-7.759,1.27-1.138-4.592A3.146,3.146,0,0,0-829.177,513.852Zm9.1,11.04a77.778,77.778,0,0,1-10.139,1.661h0a26.845,26.845,0,0,1-2.793.2,4.32,4.32,0,0,0,.931-1.075,1.976,1.976,0,0,1,.828-.977,1.047,1.047,0,0,0,1.034.586,3.092,3.092,0,0,0,2.069-.684,2.008,2.008,0,0,0,.621-.977,2.865,2.865,0,0,1,.414-.782,11.838,11.838,0,0,1,1.035-.782c.724-.488,1.138-.782,1.241-1.075a.705.705,0,0,1,.1-.391.563.563,0,0,1,.1-.391,1.807,1.807,0,0,1,.517.2l.621.293h0c.1,0,.207.1.31.1a1.4,1.4,0,0,0,.621,1.27,11.122,11.122,0,0,0,2.586.684A7.674,7.674,0,0,0-820.073,524.892Zm-4.035-4.787a1.815,1.815,0,0,0-.517-.2c-.207-.1-.31,0-.517,0-.207.1-.31.489-.31.684a.347.347,0,0,1-.1.293,5,5,0,0,1-1.035.782,10.86,10.86,0,0,0-1.138.879,1.966,1.966,0,0,0-.517.879,2.112,2.112,0,0,1-.517.782,2.369,2.369,0,0,1-1.655.489c-.414,0-.724-.586-.724-.586l-.1-.1a.1.1,0,0,0-.1-.1,1.683,1.683,0,0,1-.724-1.466,2.205,2.205,0,0,0,.828-.977,2.685,2.685,0,0,1,.724-.782,1.321,1.321,0,0,0,.724-1.075,2.488,2.488,0,0,1,.207-1.075l.207.586c0,.1.207.2.31.2l1.241-.2.1.782a.336.336,0,0,0,.1.2h.207a4.818,4.818,0,0,1,2.173-.684,1.337,1.337,0,0,1,1.138.684Zm-8.276-4.4a13.148,13.148,0,0,0,2.069-.977l.931,3.419a1.986,1.986,0,0,0-.621,1.661c0,.293-.207.489-.621.782a2.359,2.359,0,0,0-.828.879,2.034,2.034,0,0,1-.621.782,8.495,8.495,0,0,0-1.655-.2,1.713,1.713,0,0,1-.828-.293,3.847,3.847,0,0,0-1.138-.391l-.621-4.885,3-.782A1.476,1.476,0,0,0-832.384,515.708Zm-6-6.351a1.494,1.494,0,0,0,1.242-1.075c.1-.293.1-.293.414-.391.517,0,.931,1.368,1.138,2.052l.1.391c.207.488.517.782.931.782a1.53,1.53,0,0,0,.621-.2h.1a2.253,2.253,0,0,1,.31,2.247c-.414.977-.517,1.759-.207,2.149l-2.586.684v-.391c0-.1-.1-.2-.31-.2l-2.379.2a10.256,10.256,0,0,0,0-3.615C-839.316,510.921-839.316,509.553-838.385,509.358Zm-2.276,7.523a.651.651,0,0,0,.414-.1,1.208,1.208,0,0,0,.724-.684l2.38-.2.724,5.471c0,.391-.207.977-.31.977q-.931.146-.931.879c0,.293-.414.684-.621.782-.207,0-.414.2-.724.293a6.278,6.278,0,0,0-.828.391,7.849,7.849,0,0,1-1.345-.1v-.586c.414-.293.31-1.368,0-1.759-.1-.1,0-.489.1-.782,0-.1.1-.293.1-.391a7.085,7.085,0,0,0-.1-1.954,19.508,19.508,0,0,1-.207-2.54A.827.827,0,0,0-840.661,516.881Zm-.517,8.3c.31,0,.828.1,1.242.1h.31a1.915,1.915,0,0,0,.931-.391,3.49,3.49,0,0,1,.621-.293,1.38,1.38,0,0,0,.931-1.172c0-.2.1-.391.517-.488.517-.1.621-.586.724-1.075a3.423,3.423,0,0,1,.931.293,1.81,1.81,0,0,0,1.138.293,8.556,8.556,0,0,1,1.448.2,2.173,2.173,0,0,0,.621,1.563,2.508,2.508,0,0,0-.931,1.172,2.171,2.171,0,0,1-.931,1.075l-.31.293c-3.207.2-5.793.293-6.828.293a2.116,2.116,0,0,0-1.035.293.548.548,0,0,1-.414.2h-1.448a2.008,2.008,0,0,0,.31-.684v-.1s.1,0,.1.1a1.531,1.531,0,0,0,.621.2h.1c.31-.1.517-.489.724-1.075a2.271,2.271,0,0,1,.31-.684C-841.178,525.283-841.178,525.283-841.178,525.185Zm-.31-5.862a6.274,6.274,0,0,1,.1,1.856c0,.1-.1.2-.1.391-.1.391-.31.879,0,1.173.207.2.207.977,0,1.075a.794.794,0,0,0-.207.684,1.178,1.178,0,0,1-.1.586,5.64,5.64,0,0,1-.414.782,3.2,3.2,0,0,1-.31.782.8.8,0,0,1-.414-.2,2.574,2.574,0,0,0-.931-.293,1.075,1.075,0,0,1-.414-.489,1.419,1.419,0,0,0-.724-.781c-.207-.2-.414-.2-.31-.684a1.655,1.655,0,0,0-.724-1.368c-.207-.2-.31-.293-.31-.391a2.329,2.329,0,0,0-.621-1.075c-.31-.391-.724-.879-.724-1.27a1.315,1.315,0,0,1,.31-.879,1.721,1.721,0,0,0,.414-1.075c0-.489.31-.586.724-.782.1-.1.31-.1.414-.2a.534.534,0,0,0,.31-.488c.1-.488-.207-1.075-.828-1.759-.1-.1-.207-.2-.207-.293.621,0,1.759-.1,4.035-.2,0,.2.1.391.1.586a2.518,2.518,0,0,0,.724,1.466A26.094,26.094,0,0,0-841.488,519.323Zm-10.656,15.241a1.12,1.12,0,0,0-.414-.1v-4.4c0-.1,0-.1-.1-.2l-.207-.1V528.8h7.242v.586a.217.217,0,0,0,.207.2h.517c-.1.1-.1.293-.207.391a2.754,2.754,0,0,0-.31.977,2.922,2.922,0,0,1-.414.879,7.767,7.767,0,0,0-1.345,4.006l-4.862.1a4.2,4.2,0,0,1,.1-.977C-851.937,534.662-852.041,534.565-852.144,534.565Zm7.035-5.471v-.586a.217.217,0,0,0-.207-.2h-7.449v-5.764c0-.1,0-.2-.1-.2a1.165,1.165,0,0,1-.517-.977.563.563,0,0,0-.1-.391,7.832,7.832,0,0,0-.621-.782h0l-.621-.586h6.725a1.007,1.007,0,0,0-.1.586,4.6,4.6,0,0,0,.828,1.563,1.585,1.585,0,0,1,.517.879c0,.293.31.488.517.684a.964.964,0,0,1,.517.977,1.166,1.166,0,0,0,.621,1.172,1.147,1.147,0,0,1,.621.586,1.8,1.8,0,0,0,.828.879h.1v.1a1.881,1.881,0,0,1-.414.782,4.311,4.311,0,0,0-.621,1.368v.1h-.517Zm-17.794-.879-5.483-.586.1-1.075,1.552.1h0l13.346.782v2.247c0,.1,0,.1.1.2l.207.1v4.1l-.931-.293a8.147,8.147,0,0,0-1.552,0,3.866,3.866,0,0,1-1.448.1,2.717,2.717,0,0,0-.828-.1,3.466,3.466,0,0,1-1.759-.489c-.621-.293-1.241-.488-1.759-.684a3.917,3.917,0,0,1-1.448-.586l.207-3.81C-862.593,528.409-862.7,528.214-862.9,528.214Zm-25.347-4.1-.31,1.368c-.1,0-.1,0-.31-.1a.474.474,0,0,0-.517.1,1.008,1.008,0,0,0-.31.977,1.2,1.2,0,0,1-.1.684c-.1.1-.1.293-.207.488-1.448-2.149-6-8.7-6.518-9.575-.207-.293-.31-.489-.517-.586-.31-.293-.517-.489.414-2.736.828-2.247,1.241-3.224,1.345-3.517,1.448.391,3,.684,4.759,1.075,1.345.391,3,.684,4.552.977l-2.276,10.845Zm2.9-10.943c2.069.293,3.931.489,4.656.586l-.31,2.345c0,.1.1.293.207.293l3.1.586-1.241,8.207-8.587-1.27Zm38.692,2.149c.517.684.724,1.172.621,1.368,0,.1-.1.1-.1.1a.394.394,0,0,1-.31.1c-.414.2-1.035.391-1.035,1.172a1.256,1.256,0,0,1-.31.781l-.1.1h-7.345l-.31-.586c-.1-.977-.724-4.1-.724-4.1l.1-1.661h.414c.207,0,2.276.2,4.655.2a18.253,18.253,0,0,0,3.311-.2h0A5.281,5.281,0,0,0-846.661,515.317Zm-9.311,3.224a1.71,1.71,0,0,0,.414.879h0a2.628,2.628,0,0,0,.517.586l-10.656-.489.1-1.465c0-.1-.1-.293-.207-.293l-3.207-.391.517-4.1,11.794,1.075C-856.593,515.22-856.075,517.76-855.972,518.541Zm1.448,2.052c.207.2.414.391.414.489a.346.346,0,0,0,.1.293,1.645,1.645,0,0,0,.724,1.27v4.4l-13.035-.782.621-6.253Zm-14.38-7.425h0l-.517,4.3-8.07-.879-3-.586.31-2.345.828-5.374.1-.782,10.759,1.661Zm-8.483,3.908,8.07.879h0l3.207.391-.828,7.914-11.69-1.075Zm31.864-11.431.517-.488a9.22,9.22,0,0,1,1.242-.977,4.373,4.373,0,0,0,3,1.368,10.017,10.017,0,0,0,1.655.1h1.138c0,.1,0,.2-.1.2a.368.368,0,0,1-.207.1c-.621,0-3.311.586-3.828,1.661a1.1,1.1,0,0,0-.1.782,2.12,2.12,0,0,1-.31-.489c-.1-.1-.1-.2-.207-.391a.562.562,0,0,1-.1-.391c-.1-.489-.31-.586-1.138-.684a2.745,2.745,0,0,1-1.862-.684C-845.73,505.742-845.626,505.645-845.523,505.645Zm-2.38.293a1.3,1.3,0,0,0,.931.391,1.562,1.562,0,0,0,.724-.2,2.734,2.734,0,0,0,2.172.782c.621,0,.621.1.724.293a1.6,1.6,0,0,0,.207.488.347.347,0,0,1,.1.293c.207.391.414.879,1.034.879h.1c.1.2.1.391-.1.782a8.689,8.689,0,0,0-.517,4.3c-1.655.1-3.724.2-4.242.2a5.015,5.015,0,0,1-.414-1.466v-.293h0a1.026,1.026,0,0,0-.31-.684.815.815,0,0,0-.517-.2c-.207,0-.517-.293-.828-.586a4.657,4.657,0,0,0-.724-.684c-.517-.391-.517-.977-.517-1.759v-.2a1.051,1.051,0,0,1,.414-.879,1.319,1.319,0,0,0,.517-.977c0-.488.1-.586.621-.782h.1A.716.716,0,0,1-847.9,505.938Zm-8.587-4.983a11.457,11.457,0,0,0,1.966-.293,1.084,1.084,0,0,0,.31-.1,2.917,2.917,0,0,1,.31.391c.828.977,2.379,1.075,3.517,1.172a3.556,3.556,0,0,1,1.242.2,3.972,3.972,0,0,0,1.552.293h.931a7.237,7.237,0,0,1-.931.684,8.237,8.237,0,0,0-1.448,1.172c-.207.2-.517.586-.31.977a.1.1,0,0,0,.1.1c-.414.2-.621.489-.621,1.172,0,.293-.1.391-.31.586a1.817,1.817,0,0,0-.517,1.172v.2c0,.879,0,1.661.724,2.149l.621.586c.414.391.724.782,1.241.782h.1l.1.1a48.576,48.576,0,0,1-7.656,0v-3.126c0-.1,0-.2-.1-.2-.31-.2-.621-.489-.621-.684v-3.81c0-.391-.1-.782-.1-1.27A8.023,8.023,0,0,1-856.489,500.955Zm-.207,7.23a1.6,1.6,0,0,0,.724,1.075v3.029h-.414a.217.217,0,0,0-.207.2v1.661l-11.691-1.075.828-5.96c1.242.1,6.828.684,10.346.684h.621A.383.383,0,0,0-856.7,508.185Zm-7.242-7.425c.828,0,1.966,0,4.655.2a9.6,9.6,0,0,0,2.379,0,7.834,7.834,0,0,0,.1,2.247,5.3,5.3,0,0,1,.1,1.172v2.736a93.287,93.287,0,0,1-10.863-.684l.724-5.862A17.884,17.884,0,0,0-863.938,500.76Zm-20.588-2.833c5.069.977,13.656,2.247,17.07,2.638h.207l-.828,6.057h0l-.207,1.954-11.07-1.759c-.1,0-.31.1-.31.2l-.1.684-.1-.1a1.381,1.381,0,0,0-.621-.1,5.034,5.034,0,0,1-1.655-.488,2.057,2.057,0,0,1-.828-1.075,1.848,1.848,0,0,0-.724-1.075c-.207-.1-.31-.2-.31-.391a1.565,1.565,0,0,1,.517-.879c.621-.586-.31-1.661-.931-2.443l-.207-.293C-885.146,500.467-884.939,499.392-884.526,497.926Zm-.517-.1c-.414,1.563-.621,2.736,0,3.517l.31.293c.517.586,1.345,1.466,1.035,1.856s-.724.782-.621,1.27c0,.293.207.489.517.684a1.334,1.334,0,0,1,.517.782c.207.391.31.977,1.035,1.27a5.814,5.814,0,0,0,1.862.586c.207,0,.31,0,.414.1l.207.1-.828,4.983a73.652,73.652,0,0,1-9.415-1.563,23.4,23.4,0,0,0,.724-2.54,1.735,1.735,0,0,0,.207-.684,3.38,3.38,0,0,0,.31-1.563c-.1-.293.414-1.075.724-1.466l.1-.1a5.7,5.7,0,0,0,.414-2.442l1.345-5.276A3.912,3.912,0,0,0-885.043,497.829Zm-13.035,1.759a3.171,3.171,0,0,0,.207-1.27v-.293l.1-.2a1.535,1.535,0,0,0,0-1.172.785.785,0,0,1,0-.684h.1a.548.548,0,0,1,.414.2,1.346,1.346,0,0,0,.931.391,1.2,1.2,0,0,0,1.345-.684l.1-.1h0c.207,0,.621.2.828.2,1.242.391,5.793,1.368,7.242,1.759l-1.345,5.081-.724-.1c-2.793-.391-3-.391-3.414-.1h-.31a3.063,3.063,0,0,0-1.448-.1c-.517.1-.621,0-.828-.2a1.318,1.318,0,0,0-1.241-.391c-.31,0-.517,0-.621-.1a1.125,1.125,0,0,1-.207-.782v-.1c0-.391-.414-.489-1.035-.684-.1,0-.207-.1-.414-.1C-898.182,499.783-898.182,499.685-898.078,499.587Zm-4.035,8.207c0-.2,0-.293.517-.879a25.427,25.427,0,0,0,2.9-5.08l.1-.293a2.486,2.486,0,0,0,.31-1.172c.1,0,.207.1.31.1.517.1.621.2.621.293v.1a1.385,1.385,0,0,0,.414,1.172,1.182,1.182,0,0,0,1.035.2,1.041,1.041,0,0,1,.828.2,1.318,1.318,0,0,0,1.242.391,5.089,5.089,0,0,1,1.241,0,.871.871,0,0,0,.828-.1c.207-.2.517-.1,3,.2l.724.1a4.875,4.875,0,0,1-.31,1.954l-.1.1c-.414.586-.931,1.368-.828,1.856.1.2-.1.782-.31,1.27a2.2,2.2,0,0,0-.207.782c-.207.586-.621,2.052-.724,2.54a76.442,76.442,0,0,1-11.587-3.029Zm11.07,24.621h0a12.078,12.078,0,0,0-2.276-.1c-1.655,0-1.655-.1-1.759-.488a2.38,2.38,0,0,0-.207-.684,8.9,8.9,0,0,0-3.518-3.615c-1.552-1.075-1.552-1.368-1.448-1.856v-.489a6.46,6.46,0,0,0-.724-1.954,9.271,9.271,0,0,1-.724-1.563c-.1-.879-.621-4.1-1.241-4.885a2.709,2.709,0,0,1-.207-1.954,2.433,2.433,0,0,0-.207-1.466,2.885,2.885,0,0,1-.207-.782,16.933,16.933,0,0,1,.931-2.833,6.49,6.49,0,0,1,.31-.781c.931.293,3.207,1.075,6.518,1.954-.1.391-.517,1.368-1.345,3.517-.931,2.443-.828,2.736-.207,3.224a2.162,2.162,0,0,1,.414.489c.724,1.075,6.621,9.77,7.035,10.356.1.1.1.2.207.293.1.2.31.391.31.489a.1.1,0,0,1-.1.1,1.3,1.3,0,0,0-.621.879,1.556,1.556,0,0,1-.414.684A2.538,2.538,0,0,0-891.043,532.415Zm6.1,3.615a13.491,13.491,0,0,0-2.173-1.075c-2.276-.879-2.9-1.661-3.1-1.954l-.207-.2h0v-.293a2.22,2.22,0,0,1,.31-1.172,1.967,1.967,0,0,0,.517-.879.9.9,0,0,1,.414-.586.526.526,0,0,0,.31-.391c.1-.293-.207-.586-.414-.879-.1-.1-.1-.2-.207-.293v-.1a1.579,1.579,0,0,1,.207-.879,1.254,1.254,0,0,0,.1-.977c0-.2.1-.586.207-.586a1.167,1.167,0,0,0,.828,0,.3.3,0,0,0,.1-.2l.31-1.27,8.587,1.27-1.862,11.724A7.976,7.976,0,0,1-884.939,536.03Zm8.38.879c-.207,0-1.862-.1-2.9-.2-.207,0-.517.1-.517.391l-.1.391a.98.98,0,0,1-.517-.1l1.862-11.724,9.932.879-1.241,10.747-6-.2C-876.146,536.909-876.353,536.909-876.56,536.909Zm24.829,4.4a.822.822,0,0,0-.31.586c0,.2,0,.391.1.488,0,.2.1.293.1.488h-.1c-1.345,0-2.586,1.075-3.724,2.052A6.2,6.2,0,0,1-857.11,546c-1.759.977-2.483,2.247-2.276,3.908a3.286,3.286,0,0,1,.1,1.368c-2.173,0-3.414-2.638-4.449-4.69a12.85,12.85,0,0,0-.621-1.173,6.376,6.376,0,0,0-.621-1.172c-.621-1.368-1.035-2.149-2.793-2.149a2.627,2.627,0,0,0-1.759.782,1.076,1.076,0,0,1-.724.391,2.75,2.75,0,0,1-.724-.2,2.566,2.566,0,0,1-1.448-1.661,2.67,2.67,0,0,0-1.035-1.563,11.612,11.612,0,0,1-1.862-1.954c-.1-.1-.207-.2-.207-.293l5.793.2h0a.217.217,0,0,0,.207-.2l1.035-9.477,5.276.488-.207,3.615c0,.1,0,.1.1.2a4.085,4.085,0,0,0,1.759.782,8.25,8.25,0,0,1,1.655.684,3.422,3.422,0,0,0,1.966.488,1.616,1.616,0,0,1,.724.1,9.289,9.289,0,0,0,1.655,0,7.262,7.262,0,0,1,1.345-.1,15.378,15.378,0,0,0,1.655.489c0,.684-.207,2.638-.207,3.322a4.106,4.106,0,0,0,.621,1.661,3.2,3.2,0,0,1,.414.977C-851.523,541.013-851.627,541.11-851.73,541.306Zm7.759,3.126a6.353,6.353,0,0,1-2.276-.489,3.2,3.2,0,0,0-2.276-.489h-.724a2.551,2.551,0,0,1-.828-.2,7.386,7.386,0,0,0-1.345-.391c0-.293-.1-.489-.1-.684s-.1-.293-.1-.391.1-.2.207-.293a.72.72,0,0,0,.31-.782,2,2,0,0,0-.517-1.075,7.3,7.3,0,0,1-.621-1.465,15.91,15.91,0,0,1,.1-1.954l4.862-.1c0,.586.1.879.1,1.172v.391a1.468,1.468,0,0,0-.31.684c-.517,1.466-.517,1.856-.414,2.15.1.1.207.2.31.2.31.1,2.276,0,3.1,0a3.645,3.645,0,0,0,.31,1.27,2.039,2.039,0,0,0,.1.782,4.99,4.99,0,0,1,.414,1.563C-843.557,544.432-843.661,544.432-843.971,544.432Zm2.069-3.42h-.414a1.939,1.939,0,0,0-1.448.488,4.716,4.716,0,0,1-.1-.879c0-.1,0-.1-.1-.2a.368.368,0,0,0-.207-.1h-3.207c0-.1-.1-.293.414-1.759a1.009,1.009,0,0,1,.31-.586c.1-.2.1-.293.1-.782,0-.293-.1-.684-.1-1.368a6.941,6.941,0,0,1,1.242-4.006c0-.1.1-.1.1-.2.931,0,2.173,0,3.621-.1Zm.414-9.77h0c-1.034,0-2.276.1-3.517.1a.563.563,0,0,0,.1-.391c0-.293.207-.488.31-.782a3.176,3.176,0,0,0,.414-1.173,1.709,1.709,0,0,1,.414-.879h1.759a.636.636,0,0,0,.621-.293,1.256,1.256,0,0,1,.724-.2c1.242,0,5.276-.1,9.828-.586a4.021,4.021,0,0,1-1.035.782A3.411,3.411,0,0,0-833,528.7c-.207.2-.31.391-.517.488a3.455,3.455,0,0,0-1.242,1.466c-.1,0-.207,0-.207.1a33.57,33.57,0,0,1-6.518.489Zm12.828,8.109a34.512,34.512,0,0,1-5.38.782c-.517,0-.621,0-.931-.782a2.819,2.819,0,0,1,.1-2.052,1.011,1.011,0,0,0,.1-.488.934.934,0,0,0-.31-.782,1.421,1.421,0,0,1-.31-.684,7.379,7.379,0,0,0-.414-1.661,14.463,14.463,0,0,1-.517-2.247c.621-.1,1.138-.1,1.448-.2A7.332,7.332,0,0,1-833,530.95a3.278,3.278,0,0,0,1.242,1.075c.31.2.724.489.724.586a1.383,1.383,0,0,0,.724.782,1.8,1.8,0,0,1,.517.391,2.717,2.717,0,0,0,.621.488c.207.2.414.293.517.488,0,.1.1.2.1.293a3.376,3.376,0,0,0,.414.879,4.738,4.738,0,0,0-.517,1.27A3.8,3.8,0,0,0-828.66,539.352Zm-11.07,1.856a11.368,11.368,0,0,1-1.552-.2h0l.1-9.282c1.552,0,3.1-.1,4.345-.2a17.586,17.586,0,0,0,.517,2.247c.207.684.31,1.27.414,1.563a1.21,1.21,0,0,0,.414.879c.1.2.207.293.207.488a4.031,4.031,0,0,0-.1.489,3.92,3.92,0,0,0-.1,2.443c0,.1.1.1.1.2l-4.552.391a.368.368,0,0,0-.207.1v.2l.414.684Zm12.311,2.345a3.375,3.375,0,0,0,.414.879,19.081,19.081,0,0,0,1.241,2.442,3.958,3.958,0,0,1,.828,2.052c.1,1.27-.1,2.149-.828,2.54l-.414.2v-.2c0-.684-.1-.879-.517-1.172a2.253,2.253,0,0,1-.724-.684,13.413,13.413,0,0,1-.828-1.075,2.884,2.884,0,0,0-.931-1.075,2.629,2.629,0,0,1-.724-2.345c.207-1.368-1.448-2.833-2.69-3.517a1.3,1.3,0,0,0-.828-.2,1.447,1.447,0,0,0-1.034.489.915.915,0,0,1-.621.293c-.31,0-.724-.391-1.138-.684-.621-.488-1.345-.977-1.966-.684a3.426,3.426,0,0,1-.931.293l-.414-.586,4.345-.391c.31.391.517.391,1.035.391a30.9,30.9,0,0,0,5.483-.782C-828.349,541.11-827.832,542.283-827.418,543.553Zm2.9-11.138c-.31.293-.517.586-.724.782a3.613,3.613,0,0,1-.931.684,7.435,7.435,0,0,0-1.655,1.466l-.31-.586c0-.1-.1-.2-.1-.293a1.586,1.586,0,0,0-.724-.684,2.239,2.239,0,0,1-.517-.391c-.207-.2-.414-.293-.621-.488a1.186,1.186,0,0,1-.517-.489c-.1-.293-.517-.586-.931-.879a7.256,7.256,0,0,1-.931-.684,1.5,1.5,0,0,0,.931-.293,4.69,4.69,0,0,1,3-.293c.517.391,1.345.2,1.862.2h.31a8.89,8.89,0,0,1,2.069,1.466C-824.314,532.122-824.418,532.22-824.521,532.415Zm3.1-3.224-.31.293c-.517.489-1.345,1.368-2.069,2.149a8.175,8.175,0,0,0-2.379-1.563.651.651,0,0,0-.414.1c-.414.1-1.138.2-1.448-.1-.724-.489-2.793-.2-3.621.293a2.356,2.356,0,0,1-1.241.2,4.9,4.9,0,0,0-1.138.1,3.623,3.623,0,0,1,.828-.879,3.423,3.423,0,0,0,.621-.586,2.4,2.4,0,0,1,.931-.782,5.207,5.207,0,0,0,1.552-1.27,64.152,64.152,0,0,0,10.139-1.661c.1.2.1.489.207.684C-819.245,527.237-820.28,528.214-821.418,529.191Zm1.862-7.816c-.1.293-.207.684-.31,1.075a8.17,8.17,0,0,1-2.483-.684c-.621-.293-.414-.977-.414-1.075v-.2c-.1-.1-.1-.1-.207-.1h-.414a1.616,1.616,0,0,0-1.552-1.368,5.666,5.666,0,0,0-2.069.586v-.391l6-.977.724,2.54a.217.217,0,0,0,.207.2l.828.1C-819.452,521.179-819.452,521.277-819.556,521.375Zm.31-1.466a1.578,1.578,0,0,1-.1.684h-.724l-.621-2.345a.574.574,0,0,1,.517.293,1.74,1.74,0,0,0,.931.781Q-819.245,519.616-819.245,519.909Zm.828-2.443a2.553,2.553,0,0,0-.724,1.368c-.207-.2-.414-.293-.517-.489-.1-.1-.1-.2-.207-.293a1.386,1.386,0,0,0,.414-1.173,1.135,1.135,0,0,0-.517-.684c-.1,0-.1-.1-.1-.2-.1-.293.1-.782.517-1.27h0a6.069,6.069,0,0,1,1.241.391,4.5,4.5,0,0,0,.1,1.172C-818.211,516.881-818.211,517.271-818.417,517.467Zm.1-2.833a6.07,6.07,0,0,0-1.242-.391,1.183,1.183,0,0,0-.517-.1,3.144,3.144,0,0,1-.724-.488,7.558,7.558,0,0,0-.621-.489c-.517-.2-5.9.977-5.9.977-1.035.2-1.242,0-1.448-.488h0a5.833,5.833,0,0,0,.828-.684,2.75,2.75,0,0,0,.828-1.368c.207-.586.31-.879.828-1.075a5.744,5.744,0,0,0,3.311-2.736c.207-.293.31-.586.517-.684a9.985,9.985,0,0,1,2.69-.879v2.443l1.241,3.908.517,1.661C-818.107,514.243-818.211,514.438-818.314,514.633Zm.828-.782-.414-1.27,2.173-.586.31.977A12.936,12.936,0,0,0-817.486,513.852Zm2.586-1.075-.31-.977.828-.2a1.347,1.347,0,0,1,.207.879C-814.383,512.582-814.693,512.679-814.9,512.777Zm1.862-.977c0,.1,0,.1-.1.2a2.292,2.292,0,0,1-.517.293,2.6,2.6,0,0,0-.517-1.173h-.207l-3.621.977-.31-1.075,1.138-.391c.1,0,.828-.2,1.655-.293a5.009,5.009,0,0,0,.931-.293c.1,0,.1,0,.207-.1a2.286,2.286,0,0,0,.724.781C-813.141,511.311-813.038,511.6-813.038,511.8Zm2.69-7.816a1.781,1.781,0,0,1-.931.684,1.859,1.859,0,0,0-1.138.977,2.027,2.027,0,0,1-.621.684,2.162,2.162,0,0,0-1.035,1.563.84.84,0,0,1-.1.489c0,.1-.1.2-.1.293a.7.7,0,0,1-.414-.488c-.207-.684-.931-2.54-1.242-3.322.931-.977.931-2.736.828-3.713v-.1c0-.586,1.035-1.075,1.655-1.27.31,0,.828.489,1.035,1.172a5.54,5.54,0,0,0,1.345,2.052c.207.2.31.391.517.586C-810.451,503.593-810.348,503.788-810.348,503.984Zm-75.316,39.862a5.924,5.924,0,0,0-2.9-2.052,3.268,3.268,0,0,0-1.241-.293,1.1,1.1,0,0,0-1.138.684c-.207.488-.31.488-.414.488h-.31a2.169,2.169,0,0,0-1.138.1.983.983,0,0,0-.414,1.27c.1.488,0,.488-.1.586h-.828a2.1,2.1,0,0,0-1.966,1.172,10.5,10.5,0,0,1-2.586,2.931.534.534,0,0,0-.31.488c0,.489.517.782,1.552,1.27l.414.2c.31.2.724.2,1.552.1h1.448a3.8,3.8,0,0,1,1.966.293c.931.586,3.1,3.615,3.207,5.081,0,1.954.931,2.345,1.138,2.345h.207a1.194,1.194,0,0,0,.931-.391.906.906,0,0,0,.207-.782c-.1-.488-.31-2.736-.414-3.615a.433.433,0,0,0-.414-.391h-.207a1.336,1.336,0,0,1-.207-.586c-.207-.489-.31-.782.207-1.563.724-1.075,3.311-4.1,3.311-4.2a1.011,1.011,0,0,0,.1-.488C-884.215,546.191-884.939,544.823-885.664,543.846Zm-2.793,6.546a2.181,2.181,0,0,0-.31,2.54,4.158,4.158,0,0,1,.31.782c.1.2.207.293.414.293h.1c.1.879.31,2.833.414,3.42h-.1a2.089,2.089,0,0,1-.31-1.368c0-1.856-2.483-5.08-3.621-5.862a5.075,5.075,0,0,0-2.586-.489h-2.38c-.1-.1-.31-.1-.517-.293a2.637,2.637,0,0,1-.724-.391,13.113,13.113,0,0,0,2.586-2.931,1.194,1.194,0,0,1,1.345-.684,1.612,1.612,0,0,0,.931-.1,1.233,1.233,0,0,0,.621-1.563v-.391h.931a1.511,1.511,0,0,0,1.448-1.075s.207-.1.931.2a5.061,5.061,0,0,1,2.38,1.661,11.571,11.571,0,0,1,1.241,2.052C-885.974,547.168-887.836,549.513-888.457,550.392Zm19.864,6.155a2.156,2.156,0,0,1-.414-.489,2.914,2.914,0,0,0-2.069-.977h0a.624.624,0,0,0-.517.2.452.452,0,0,0-.1.586v.2l-.1.1a.905.905,0,0,0-.207,1.172c.1.1.1.293.1.489a1.177,1.177,0,0,0,.1.586.864.864,0,0,0,.828.684.777.777,0,0,0,.724-.489,1.693,1.693,0,0,1,.724-.391,2.423,2.423,0,0,0,1.138-.684C-867.973,557.134-868.387,556.743-868.593,556.547Zm-1.035.684a4.717,4.717,0,0,0-1.241.586v-.1a1.386,1.386,0,0,0-.207-.879l.1-.1a2.112,2.112,0,0,0,.31-.489v-.2a1.318,1.318,0,0,1,.724.489c.207.2.31.391.517.586C-869.421,557.231-869.525,557.231-869.628,557.231Zm-9-6.448c-.517-.293-1.759,0-1.759.782a.927.927,0,0,0,.207.586,1.63,1.63,0,0,0,1.035.391h.207a1.18,1.18,0,0,0,.724-.977A.781.781,0,0,0-878.629,550.783Zm2.9,1.172a.976.976,0,0,0-1.241.488.285.285,0,0,0,0,.391,1.394,1.394,0,0,0,1.241.977h.1a.875.875,0,0,0,.724-.586A1.606,1.606,0,0,0-875.732,551.956Zm4.242,2.443c0-.293-.207-.586-.931-.879a4.889,4.889,0,0,0-1.655-.391.811.811,0,0,0-.724.489c-.1.489.414.684.621.782.1.1.31.1.31.2a1.63,1.63,0,0,0,1.345.782,1.529,1.529,0,0,0,.621-.2C-871.594,554.984-871.387,554.691-871.49,554.4Z" transform="translate(904.715 -494.8)"/></svg>