<svg xmlns="http://www.w3.org/2000/svg" width="95.322" height="64.288" viewBox="0 0 95.322 64.288"><defs><style>.a{fill:#2699fb;}.b{fill:#fff;}</style></defs><g transform="translate(0 0)"><path class="a" d="M-817.439,509.4c0,.161-.161.321-.161.642" transform="translate(904.858 -495.192)"/><path class="a" d="M-858.1,501.1" transform="translate(906.326 -490.987)"/><path class="a" d="M-858.1,501.1" transform="translate(906.326 -490.987)"/><path class="a" d="M-846.1,543.2" transform="translate(906.74 -495.913)"/><path class="a" d="M-844,542.1" transform="translate(906.813 -495.887)"/><path class="a" d="M-809.728,502.376a2.52,2.52,0,0,1-.517-.548,4.385,4.385,0,0,1-1.138-1.643,2.177,2.177,0,0,0-2.586-1.643c-.724.274-2.173.913-2.173,2.1v.183c0,.822.1,2.465-.828,3.012a17.485,17.485,0,0,1-2.9.822,9.52,9.52,0,0,0-3.207,1,3.309,3.309,0,0,0-.724.913,4.615,4.615,0,0,1-2.793,2.191,2.258,2.258,0,0,0-1.448,1.643,1.2,1.2,0,0,1-.517.821,18.443,18.443,0,0,1-4.138,2.465H-833c0-.091-.1-.365.31-1.187a2.853,2.853,0,0,0-.621-3.286c-.31-.274-.828-.091-1.138,0h0l-.1-.365c-.31-1.1-.828-2.556-2.069-2.556h-.31a1.358,1.358,0,0,0-1.035.913.63.63,0,0,1-.517.456c-1.345.274-1.862,1.461-1.655,3.469.414,3.195-.31,3.469-.31,3.469-.414.091-.724-.274-.931-1a9,9,0,0,1,.207-4.382,1.331,1.331,0,0,0,0-1.734c-.1-.183-.1-.183-.1-.274a6.582,6.582,0,0,1,2.9-1,1.474,1.474,0,0,0,1.035-.365.95.95,0,0,0,.31-1c-.1-.73-1.035-.73-2.173-.73a8.854,8.854,0,0,1-1.552-.091,3.4,3.4,0,0,1-2.38-1,1,1,0,0,0-.724-.274,3.9,3.9,0,0,0-2.069,1.1l-.517.456c-.207.183-.517.456-.724.456a.378.378,0,0,1-.207-.091,1.368,1.368,0,0,0-.724-.365,4.615,4.615,0,0,1,1.138-.73c.828-.456,1.448-.913,1.448-1.461a1.2,1.2,0,0,0-.207-.548,2.073,2.073,0,0,0-1.345-.274h-.621a3.971,3.971,0,0,1-1.034-.091,4.4,4.4,0,0,0-1.655-.274c-1.035-.091-2.276-.183-2.793-.73a1.431,1.431,0,0,0-1.138-.639c-.207,0-.414.091-.621.091a12.063,12.063,0,0,1-4.552.274c-2.69-.183-3.828-.183-4.656-.183a29.092,29.092,0,0,1-3.414-.183c-3.828-.365-14.173-1.826-18.725-2.739-.621-.091-6.311-1.278-7.552-1.734a4.658,4.658,0,0,0-1.242-.274.862.862,0,0,0-.828.457c0,.091-.1.091-.1.183s-.1.091-.207.183h-.1c-.1,0-.207-.091-.414-.183a1.576,1.576,0,0,0-1.138-.365h-.1a1.125,1.125,0,0,0-.931.456,1.843,1.843,0,0,0-.1,1.461c.1.183,0,.365-.1.639a.311.311,0,0,1-.1.274v.548a2.245,2.245,0,0,1-.1.822,4.5,4.5,0,0,0-.31.913,3.6,3.6,0,0,1-.207.913l-.1.274a26.277,26.277,0,0,1-2.69,4.564c-.724.73-.828,1-.724,1.461a1.83,1.83,0,0,1-.1.639c0,.183-.207.456-.31.913a7.056,7.056,0,0,0-.931,3.012,2.942,2.942,0,0,0,.207,1,4.166,4.166,0,0,1,.207.822,3.319,3.319,0,0,0,.31,2.556,14.4,14.4,0,0,1,1.035,4.2,3.979,3.979,0,0,0,.828,1.826,3.6,3.6,0,0,1,.621,1.369v.365c-.1.822,0,1.369,1.966,2.556a8.154,8.154,0,0,1,3.207,3.012.742.742,0,0,1,.1.456c.207.913.621,1.187,2.793,1.187a9.016,9.016,0,0,1,1.966.091l.1.091a.094.094,0,0,0,.1.091c.31.365,1.035,1.278,3.621,2.191.931.365,1.448.639,2.069.913,1.138.639,2.173,1.187,5.793,1.552.31,0,.517-.091.517-.365l.1-.456c.621,0,1.862.091,2.379.091.1.091.414.456.621.639a10.124,10.124,0,0,0,2.069,2.008,2.153,2.153,0,0,1,.724,1.1,2.993,2.993,0,0,0,1.966,2.1,2.714,2.714,0,0,0,1.138.183,2.581,2.581,0,0,0,1.552-.639,1.336,1.336,0,0,1,1.035-.456h0c.931,0,1.138.274,1.759,1.461.207.365.414.73.621,1.187l.621,1.1c1.035,2.1,2.586,4.929,5.38,4.929a1,1,0,0,0,.724-.274c.31-.365.414-.822.207-2.008-.207-1.1.414-1.917,1.759-2.738.517-.274,1.035-.73,1.655-1.1a7.226,7.226,0,0,1,3.1-1.734h.1a2.357,2.357,0,0,1,1.345.274,3.391,3.391,0,0,0,1.241.274h.724a3.257,3.257,0,0,1,1.759.365,7.084,7.084,0,0,0,2.69.548c1.138,0,1.448-.365,1.552-.639a4.385,4.385,0,0,0-.517-2.282c0-.091-.1-.183,0-.183.1-.182.621-.274,1.448-.091a6.056,6.056,0,0,0,3.828-.274,2.1,2.1,0,0,1,.931.548,3.421,3.421,0,0,0,1.759.822,2.481,2.481,0,0,0,1.345-.548l.31-.274a.881.881,0,0,1,.31.091c1.138.548,2.276,1.734,2.173,2.373a2.924,2.924,0,0,0,1.035,3.012,1.952,1.952,0,0,1,.621.73,5.668,5.668,0,0,0,.931,1.1,5.1,5.1,0,0,0,.931.73.094.094,0,0,1,.1.091v.274c0,1,.621,1.1.931,1.1a1.806,1.806,0,0,0,1.035-.365c1.035-.548,1.448-1.643,1.345-3.195a4.711,4.711,0,0,0-1.035-2.282,10.61,10.61,0,0,1-1.241-2.1,3.071,3.071,0,0,0-.414-.822c-.828-1.826-1.655-3.742-1.241-5.477a3.968,3.968,0,0,1,2.172-2.465,10.816,10.816,0,0,0,1.138-.822,9.079,9.079,0,0,0,.724-.821c.828-.913,1.966-2.1,2.586-2.647l.31-.274c1.035-.822,2.793-2.191,1.966-3.925-.621-1.187,0-2.739.31-3.743a2.116,2.116,0,0,0,.207-.639,2.756,2.756,0,0,0,.1-.913,2.1,2.1,0,0,1,.517-1.734,1.9,1.9,0,0,0,.414-1.917c-.1-.73-.207-1.1.207-1.278a14.745,14.745,0,0,1,2.483-1,7.373,7.373,0,0,0,2.173-.913,1.1,1.1,0,0,0,.414-.913q0-.822-1.241-1.643c-.414-.274-.414-.365-.207-.639.1-.183.207-.274.207-.456a1.037,1.037,0,0,0,.1-.548c.1-.365.1-.639.517-.913a2.608,2.608,0,0,0,.931-.913c.207-.274.31-.456.621-.548.931-.274,1.448-.73,1.552-1.187C-809.21,503.2-809.417,502.742-809.728,502.376Z" transform="translate(904.715 -494.8)"/><path class="a" d="M-878.492,546.453a9.2,9.2,0,0,0-4.495-3.371,4.837,4.837,0,0,0-1.926-.482,1.7,1.7,0,0,0-1.766,1.124c-.321.8-.481.8-.642.8h-.482a3.19,3.19,0,0,0-1.766.16,1.667,1.667,0,0,0-.642,2.087c.161.8,0,.8-.161.963h-1.284a3.217,3.217,0,0,0-3.05,1.926,16.95,16.95,0,0,1-4.013,4.816.883.883,0,0,0-.482.8c0,.8.8,1.284,2.408,2.087l.642.321c.481.321,1.124.321,2.408.161h2.247c2.087,0,2.889.321,3.05.482,1.445.963,4.816,5.939,4.976,8.347,0,3.21,1.445,3.853,1.766,3.853h.321a1.8,1.8,0,0,0,1.445-.642,1.549,1.549,0,0,0,.321-1.284c-.16-.8-.482-4.495-.642-5.939a.69.69,0,0,0-.642-.642h-.321a2.284,2.284,0,0,1-.321-.963,2.258,2.258,0,0,1,.321-2.568c1.124-1.766,5.137-6.742,5.137-6.9a1.745,1.745,0,0,0,.161-.8C-876.245,550.305-877.369,548.058-878.492,546.453Z" transform="translate(908.053 -507.207)"/><path class="a" d="M-867.726,558.908a3.508,3.508,0,0,1-.642-.8c-.642-1.124-2.568-1.605-3.21-1.605h0a.943.943,0,0,0-.8.321.774.774,0,0,0-.161.963v.321l-.161.16a1.544,1.544,0,0,0-.321,1.926,1.2,1.2,0,0,1,.161.8,2.036,2.036,0,0,0,.161.963,1.362,1.362,0,0,0,1.284,1.124,1.207,1.207,0,0,0,1.124-.8,2.587,2.587,0,0,1,1.124-.642,3.733,3.733,0,0,0,1.766-1.124C-866.763,559.871-867.4,559.229-867.726,558.908Z" transform="translate(905.03 -498.794)"/><path class="a" d="M-878.471,552.169c-.8-.482-2.729,0-2.729,1.284a1.585,1.585,0,0,0,.321.963,2.452,2.452,0,0,0,1.605.642h.321a1.933,1.933,0,0,0,1.124-1.605A1.3,1.3,0,0,0-878.471,552.169Z" transform="translate(905.214 -501.372)"/><path class="a" d="M-875.928,553.339a1.485,1.485,0,0,0-1.926.8.488.488,0,0,0,0,.642,2.187,2.187,0,0,0,1.926,1.605h.161a1.377,1.377,0,0,0,1.124-.963A2.652,2.652,0,0,0-875.928,553.339Z" transform="translate(905.287 -500.769)"/><path class="a" d="M-870.655,556.587c0-.482-.321-.963-1.445-1.445a7.236,7.236,0,0,0-2.568-.642,1.264,1.264,0,0,0-1.124.8c-.161.8.642,1.124.963,1.284.16.161.481.161.481.321a2.5,2.5,0,0,0,2.087,1.284,2.28,2.28,0,0,0,.963-.321A1.18,1.18,0,0,0-870.655,556.587Z" transform="translate(905.113 -500.004)"/><path class="b" d="M-889.1,533.1" transform="translate(912.098 -495.68)"/></g></svg>