<svg xmlns="http://www.w3.org/2000/svg" width="85.754" height="79.738" viewBox="0 0 85.754 79.738"><defs><style>.a{fill:#2699fb;}</style></defs><g transform="translate(0 0)"><path class="a" d="M28.96,36.2V31.157H27.542V29.441h-.917V28.193c0-1.141-1.283-2.092-3-2.331l-.837-7.252-.837,7.251c-1.714.239-3,1.19-3,2.331V29.44h-.917v1.715H16.623V36.2H14.039v48.77h17.5V36.2ZM18.229,81.689h-1.22V80.279h1.22Zm0-2.522h-1.22V77.756h1.22Zm0-2.408h-1.22V75.349h1.22Zm0-2.522h-1.22V72.827h1.22Zm0-2.522h-1.22V70.3h1.22Zm0-2.522h-1.22V67.78h1.22Zm0-2.522h-1.22V65.258h1.22Zm0-2.524h-1.22V62.735h1.22Zm0-2.522h-1.22V60.213h1.22Zm0-2.522h-1.22V57.689h1.22Zm0-2.288h-1.22V55.4h1.22Zm0-2.522h-1.22V52.88h1.22Zm0-2.522h-1.22V50.356h1.22Zm0-2.522h-1.22V47.835h1.22Zm0-2.523h-1.22V45.312h1.22Zm0-2.523h-1.22V42.789h1.22Zm0-2.522h-1.22V40.266h1.22Zm0-2.522h-1.22V37.743h1.22ZM20.3,81.689H19.079V80.279H20.3Zm0-2.522H19.079V77.756H20.3Zm0-2.408H19.079V75.349H20.3Zm0-2.522H19.079V72.827H20.3Zm0-2.522H19.079V70.3H20.3Zm0-2.522H19.079V67.78H20.3Zm0-2.522H19.079V65.258H20.3Zm0-2.524H19.079V62.735H20.3Zm0-2.522H19.079V60.213H20.3Zm0-2.522H19.079V57.689H20.3Zm0-2.288H19.079V55.4H20.3Zm0-2.522H19.079V52.88H20.3Zm0-2.522H19.079V50.356H20.3Zm0-2.522H19.079V47.835H20.3Zm0-2.523H19.079V45.312H20.3Zm0-2.523H19.079V42.789H20.3Zm0-2.522H19.079V40.266H20.3Zm0-2.522H19.079V37.744H20.3Zm2.068,42.535H21.147V80.279h1.218Zm0-2.522H21.147V77.756h1.218Zm0-2.408H21.147V75.349h1.218Zm0-2.522H21.147V72.827h1.218Zm0-2.522H21.147V70.3h1.218Zm0-2.522H21.147V67.78h1.218Zm0-2.522H21.147V65.258h1.218Zm0-2.524H21.147V62.735h1.218Zm0-2.522H21.147V60.213h1.218Zm0-2.522H21.147V57.689h1.218Zm0-2.288H21.147V55.4h1.218Zm0-2.522H21.147V52.88h1.218Zm0-2.522H21.147V50.356h1.218Zm0-2.522H21.147V47.835h1.218Zm0-2.523H21.147V45.312h1.218Zm0-2.523H21.147V42.789h1.218Zm0-2.522H21.147V40.266h1.218Zm0-2.522H21.147V37.744h1.218Zm2.07,42.535h-1.22V80.279h1.22Zm0-2.522h-1.22V77.756h1.22Zm0-2.408h-1.22V75.349h1.22Zm0-2.522h-1.22V72.827h1.22Zm0-2.522h-1.22V70.3h1.22Zm0-2.522h-1.22V67.78h1.22Zm0-2.522h-1.22V65.258h1.22Zm0-2.524h-1.22V62.735h1.22Zm0-2.522h-1.22V60.213h1.22Zm0-2.522h-1.22V57.689h1.22Zm0-2.288h-1.22V55.4h1.22Zm0-2.522h-1.22V52.88h1.22Zm0-2.522h-1.22V50.356h1.22Zm0-2.522h-1.22V47.835h1.22Zm0-2.523h-1.22V45.312h1.22Zm0-2.523h-1.22V42.789h1.22Zm0-2.522h-1.22V40.266h1.22Zm0-2.522h-1.22V37.744h1.22ZM26.5,81.689h-1.22V80.279H26.5v1.411Zm0-2.522h-1.22V77.756H26.5v1.411Zm0-2.408h-1.22V75.349H26.5v1.411Zm0-2.522h-1.22V72.827H26.5v1.411Zm0-2.522h-1.22V70.3H26.5v1.412Zm0-2.522h-1.22V67.78H26.5v1.412Zm0-2.522h-1.22V65.258H26.5V66.67Zm0-2.524h-1.22V62.735H26.5v1.411Zm0-2.522h-1.22V60.213H26.5v1.411Zm0-2.522h-1.22V57.689H26.5V59.1Zm0-2.288H25.285V55.4H26.5Zm0-2.522H25.285V52.88H26.5Zm0-2.522H25.285V50.356H26.5Zm0-2.522H25.285V47.835H26.5Zm0-2.523H25.285V45.312H26.5Zm0-2.523H25.285V42.789H26.5Zm0-2.522H25.285V40.266H26.5Zm0-2.522H25.285V37.744H26.5Zm.851-1.412h1.218v1.411H27.354Zm0,2.523h1.218v1.411H27.354Zm0,2.522h1.218V44.2H27.354Zm0,2.522h1.218v1.411H27.354Zm0,2.523h1.218v1.411H27.354Zm0,2.522h1.218v1.412H27.354Zm0,2.524h1.218v1.411H27.354Zm0,2.522h1.218v1.411H27.354Zm1.22,26.287h-1.22V80.279h1.22Zm0-2.522h-1.22V77.756h1.22Zm0-2.408h-1.22V75.349h1.22Zm0-2.522h-1.22V72.827h1.22Zm0-2.522h-1.22V70.3h1.22Zm0-2.522h-1.22V67.78h1.22Zm0-2.522h-1.22V65.258h1.22Zm0-2.524h-1.22V62.735h1.22Zm0-2.522h-1.22V60.213h1.22Zm0-2.522h-1.22V57.689h1.22Z" transform="translate(2.11 -5.23)"/><path class="a" d="M27.294,5.667V81.02H55.733V5.667ZM52.36,6.887h1.218v1.37H52.36Zm0,2.448h1.218V10.7H52.36Zm0,2.448h1.218v1.37H52.36Zm0,2.449h1.218V15.6H52.36Zm0,2.448h1.218v1.37H52.36Zm0,2.448h1.218V20.5H52.36Zm0,2.449h1.218v1.37H52.36Zm0,2.448h1.218V25.4H52.36Zm0,26.806h1.218V52.2H52.36Zm0,2.448h1.218v1.371H52.36Zm0,2.449h1.218V57.1H52.36Zm0,2.449h1.218v1.369H52.36Zm0,2.448h1.218V62H52.36Zm0,2.448h1.218v1.37H52.36Zm0,2.449h1.218V66.9H52.36Zm0,2.448h1.218v1.37H52.36ZM39.791,6.887h1.218v1.37H39.791Zm0,2.448h1.218V10.7H39.791Zm0,2.448h1.218v1.37H39.791Zm0,2.449h1.218V15.6H39.791Zm0,2.448h1.218v1.37H39.791Zm0,2.448h1.218V20.5H39.791Zm0,2.449h1.218v1.37H39.791Zm0,2.448h1.218V25.4H39.791Zm0,26.806h1.218V52.2H39.791Zm0,2.448h1.218v1.371H39.791Zm0,2.449h1.218V57.1H39.791Zm0,2.449h1.218v1.369H39.791Zm0,2.448h1.218V62H39.791Zm0,2.448h1.218v1.37H39.791Zm0,2.449h1.218V66.9H39.791Zm0,2.448h1.218v1.37H39.791ZM30.666,78.911h-1.22v-1.37h1.22Zm0-2.449h-1.22V75.093h1.22Zm0-2.448h-1.22v-1.37h1.22Zm0-2.448h-1.22V70.194h1.22Zm0-2.221h-1.22v-1.37h1.22Zm0-2.448h-1.22v-1.37h1.22Zm0-2.449h-1.22v-1.37h1.22Zm0-2.448h-1.22v-1.37h1.22Zm0-2.449h-1.22V58.18h1.22Zm0-2.448h-1.22v-1.37h1.22Zm0-2.448h-1.22V53.282h1.22Zm0-2.448h-1.22V50.833h1.22Zm0-2.661h-1.22v-1.37h1.22Zm0-2.448h-1.22v-1.37h1.22Zm0-2.337h-1.22V43.389h1.22Zm0-2.448h-1.22V40.94h1.22Zm0-2.448h-1.22V38.49h1.22Zm0-2.448h-1.22V36.042h1.22Zm0-2.448h-1.22v-1.37h1.22Zm0-2.449h-1.22V31.146h1.22Zm0-2.448h-1.22V28.7h1.22Zm0-2.448h-1.22V26.247h1.22Zm0-2.221h-1.22v-1.37h1.22Zm0-2.448h-1.22v-1.37h1.22Zm0-2.449h-1.22V19.13h1.22Zm0-2.448h-1.22v-1.37h1.22Zm0-2.448h-1.22v-1.37h1.22Zm0-2.448h-1.22v-1.37h1.22Zm0-2.449h-1.22V9.335h1.22Zm0-2.448h-1.22V6.887h1.22Zm2.069,70.655H31.516v-1.37h1.218Zm0-2.449H31.516V75.093h1.218Zm0-2.448H31.516v-1.37h1.218Zm0-2.448H31.516V70.194h1.218Zm0-2.221H31.516v-1.37h1.218Zm0-2.448H31.516v-1.37h1.218Zm0-2.449H31.516v-1.37h1.218Zm0-2.448H31.516v-1.37h1.218Zm0-2.449H31.516V58.18h1.218Zm0-2.448H31.516v-1.37h1.218Zm0-2.448H31.516V53.282h1.218Zm0-2.449H31.516v-1.37h1.218Zm0-2.66H31.516v-1.37h1.218Zm0-2.448H31.516v-1.37h1.218Zm0-2.337H31.516V43.389h1.218Zm0-2.448H31.516V40.94h1.218Zm0-2.448H31.516V38.49h1.218Zm0-2.448H31.516V36.042h1.218Zm0-2.448H31.516v-1.37h1.218Zm0-2.449H31.516V31.146h1.218Zm0-2.448H31.516V28.7h1.218Zm0-2.448H31.516V26.247h1.218Zm0-2.221H31.516v-1.37h1.218Zm0-2.448H31.516v-1.37h1.218Zm0-2.449H31.516V19.13h1.218Zm0-2.448H31.516v-1.37h1.218Zm0-2.448H31.516v-1.37h1.218Zm0-2.448H31.516v-1.37h1.218Zm0-2.449H31.516V9.335h1.218Zm0-2.448H31.516V6.887h1.218ZM34.8,78.911H33.585v-1.37H34.8Zm0-2.449H33.585V75.093H34.8Zm0-2.448H33.585v-1.37H34.8Zm0-2.448H33.585V70.194H34.8Zm0-2.221H33.585v-1.37H34.8Zm0-2.448H33.585v-1.37H34.8Zm0-2.449H33.585v-1.37H34.8ZM34.8,62H33.585v-1.37H34.8Zm0-2.449H33.585V58.18H34.8Zm0-2.448H33.585v-1.37H34.8Zm0-2.448H33.585V53.282H34.8Zm0-2.449H33.585v-1.37H34.8Zm0-2.66H33.585v-1.37H34.8Zm0-2.448H33.585v-1.37H34.8Zm0-2.337H33.585V43.389H34.8Zm0-2.448H33.585V40.94H34.8Zm0-2.448H33.585V38.49H34.8Zm0-2.448H33.585V36.042H34.8Zm0-2.448H33.585v-1.37H34.8Zm0-2.449H33.585V31.146H34.8Zm0-2.448H33.585V28.7H34.8Zm0-2.448H33.585V26.247H34.8Zm0-2.221H33.585v-1.37H34.8Zm0-2.448H33.585v-1.37H34.8Zm0-2.449H33.585V19.13H34.8Zm0-2.448H33.585v-1.37H34.8Zm0-2.448H33.585v-1.37H34.8Zm0-2.448H33.585v-1.37H34.8Zm0-2.449H33.585V9.335H34.8Zm0-2.448H33.585V6.887H34.8Zm2.069,70.655h-1.22v-1.37h1.22Zm0-2.449h-1.22V75.093h1.22Zm0-2.448h-1.22v-1.37h1.22Zm0-2.448h-1.22V70.194h1.22Zm0-2.221h-1.22v-1.37h1.22Zm0-2.448h-1.22v-1.37h1.22Zm0-2.449h-1.22v-1.37h1.22Zm0-2.448h-1.22v-1.37h1.22Zm0-2.449h-1.22V58.18h1.22Zm0-2.448h-1.22v-1.37h1.22Zm0-2.448h-1.22V53.282h1.22Zm0-2.449h-1.22v-1.37h1.22Zm0-2.66h-1.22v-1.37h1.22Zm0-2.448h-1.22v-1.37h1.22Zm0-2.337h-1.22V43.389h1.22Zm0-2.448h-1.22V40.94h1.22Zm0-2.448h-1.22V38.49h1.22Zm0-2.448h-1.22V36.042h1.22Zm0-2.448h-1.22v-1.37h1.22Zm0-2.449h-1.22V31.146h1.22Zm0-2.448h-1.22V28.7h1.22Zm0-2.448h-1.22V26.247h1.22Zm0-2.221h-1.22v-1.37h1.22Zm0-2.448h-1.22v-1.37h1.22Zm0-2.449h-1.22V19.13h1.22Zm0-2.448h-1.22v-1.37h1.22Zm0-2.448h-1.22v-1.37h1.22Zm0-2.448h-1.22v-1.37h1.22Zm0-2.449h-1.22V9.335h1.22Zm0-2.448h-1.22V6.887h1.22Zm2.069,70.655h-1.22v-1.37h1.22Zm0-2.449h-1.22V75.093h1.22Zm0-2.448h-1.22v-1.37h1.22Zm0-2.448h-1.22V70.194h1.22Zm0-2.221H37.723v-1.37h1.218Zm0-2.448H37.723v-1.37h1.218Zm0-2.449H37.723v-1.37h1.218Zm0-2.448H37.723v-1.37h1.218Zm0-2.449H37.723V58.18h1.218Zm0-2.448H37.723v-1.37h1.218Zm0-2.448H37.723V53.282h1.218Zm0-2.449H37.723v-1.37h1.218Zm0-2.66h-1.22v-1.37h1.22Zm0-2.448h-1.22v-1.37h1.22Zm0-2.337h-1.22V43.389h1.22Zm0-2.448h-1.22V40.94h1.22Zm0-2.448h-1.22V38.49h1.22Zm0-2.448h-1.22V36.042h1.22Zm0-2.448h-1.22v-1.37h1.22Zm0-2.449h-1.22V31.146h1.22Zm0-2.448h-1.22V28.7h1.22Zm0-2.448h-1.22V26.247h1.22Zm0-2.221H37.723v-1.37h1.218Zm0-2.448H37.723v-1.37h1.218Zm0-2.449H37.723V19.13h1.218Zm0-2.448H37.723v-1.37h1.218Zm0-2.448H37.723v-1.37h1.218Zm0-2.448H37.723v-1.37h1.218Zm0-2.449H37.723V9.335h1.218Zm0-2.448H37.723V6.887h1.218ZM41.01,78.911h-1.22v-1.37h1.22Zm0-2.449h-1.22V75.093h1.22Zm0-2.448h-1.22v-1.37h1.22Zm0-2.448h-1.22V70.194h1.22Zm0-22.021h-1.22v-1.37h1.22Zm0-2.448h-1.22v-1.37h1.22Zm0-2.337h-1.22V43.389h1.22Zm0-2.448h-1.22V40.94h1.22Zm0-2.448h-1.22V38.49h1.22Zm0-2.448h-1.22V36.042h1.22Zm0-2.448h-1.22v-1.37h1.22Zm0-2.449h-1.22V31.146h1.22Zm0-2.448h-1.22V28.7h1.22Zm0-2.448h-1.22V26.247h1.22Zm2.225,51.293h-1.22v-1.37h1.22Zm0-2.449h-1.22V75.093h1.22Zm0-2.448h-1.22v-1.37h1.22Zm0-2.448h-1.22V70.194h1.22Zm0-2.221h-1.22v-1.37h1.22Zm0-2.448h-1.22v-1.37h1.22Zm0-2.449h-1.22v-1.37h1.22Zm0-2.448h-1.22v-1.37h1.22Zm0-2.449h-1.22V58.18h1.22Zm0-2.448h-1.22v-1.37h1.22Zm0-2.448h-1.22V53.282h1.22Zm0-2.448h-1.22V50.833h1.22Zm0-2.661h-1.22v-1.37h1.22Zm0-2.448h-1.22v-1.37h1.22Zm0-2.337h-1.22V43.389h1.22Zm0-2.448h-1.22V40.94h1.22Zm0-2.448h-1.22V38.49h1.22Zm0-2.448h-1.22V36.042h1.22Zm0-2.448h-1.22v-1.37h1.22Zm0-2.449h-1.22V31.146h1.22Zm0-2.448h-1.22V28.7h1.22Zm0-2.448h-1.22V26.247h1.22Zm0-2.221h-1.22v-1.37h1.22Zm0-2.448h-1.22v-1.37h1.22Zm0-2.449h-1.22V19.13h1.22Zm0-2.448h-1.22v-1.37h1.22Zm0-2.448h-1.22v-1.37h1.22Zm0-2.448h-1.22v-1.37h1.22Zm0-2.449h-1.22V9.335h1.22Zm0-2.448h-1.22V6.887h1.22ZM45.3,78.911H44.086v-1.37H45.3Zm0-2.449H44.086V75.093H45.3Zm0-2.448H44.086v-1.37H45.3Zm0-2.448H44.086V70.194H45.3Zm0-2.221H44.086v-1.37H45.3Zm0-2.448H44.086v-1.37H45.3Zm0-2.449H44.086v-1.37H45.3ZM45.3,62H44.086v-1.37H45.3Zm0-2.449H44.086V58.18H45.3Zm0-2.448H44.086v-1.37H45.3Zm0-2.448H44.086V53.282H45.3Zm0-2.449H44.086v-1.37H45.3Zm0-2.66H44.086v-1.37H45.3Zm0-2.448H44.086v-1.37H45.3Zm0-2.337H44.086V43.389H45.3Zm0-2.448H44.086V40.94H45.3Zm0-2.448H44.086V38.49H45.3Zm0-2.448H44.086V36.042H45.3Zm0-2.448H44.086v-1.37H45.3Zm0-2.449H44.086V31.146H45.3Zm0-2.448H44.086V28.7H45.3Zm0-2.448H44.086V26.247H45.3Zm0-2.221H44.086v-1.37H45.3Zm0-2.448H44.086v-1.37H45.3Zm0-2.449H44.086V19.13H45.3Zm0-2.448H44.086v-1.37H45.3Zm0-2.448H44.086v-1.37H45.3Zm0-2.448H44.086v-1.37H45.3Zm0-2.449H44.086V9.335H45.3Zm0-2.448H44.086V6.887H45.3Zm2.069,70.655h-1.22v-1.37h1.218v1.37Zm0-2.449h-1.22V75.093h1.218v1.369Zm0-2.448h-1.22v-1.37h1.218v1.37Zm0-2.448h-1.22V70.194h1.218v1.371Zm0-2.221h-1.22v-1.37h1.218v1.37Zm0-2.448h-1.22v-1.37h1.218V66.9Zm0-2.449h-1.22v-1.37h1.218v1.37Zm0-2.448h-1.22v-1.37h1.218V62Zm0-2.449h-1.22V58.18h1.218v1.369Zm0-2.448h-1.22v-1.37h1.218V57.1Zm0-2.448h-1.22V53.282h1.218v1.371Zm0-2.449h-1.22v-1.37h1.218V52.2Zm0-2.66h-1.22v-1.37h1.218v1.37Zm0-2.448h-1.22v-1.37h1.218v1.37Zm0-2.337h-1.22V43.389h1.218v1.369Zm0-2.448h-1.22V40.94h1.218v1.369Zm0-2.448h-1.22V38.49h1.218v1.371Zm0-2.448h-1.22V36.042h1.218v1.371Zm0-2.448h-1.22v-1.37h1.218v1.37Zm0-2.449h-1.22V31.146h1.218v1.369Zm0-2.448h-1.22V28.7h1.218v1.37Zm0-2.448h-1.22V26.247h1.218v1.371Zm0-2.221h-1.22v-1.37h1.218V25.4Zm0-2.448h-1.22v-1.37h1.218v1.37Zm0-2.449h-1.22V19.13h1.218V20.5Zm0-2.448h-1.22v-1.37h1.218v1.37Zm0-2.448h-1.22v-1.37h1.218V15.6Zm0-2.448h-1.22v-1.37h1.218v1.37Zm0-2.449h-1.22V9.335h1.218V10.7Zm0-2.448h-1.22V6.887h1.218v1.37Zm2.069,70.655h-1.22v-1.37h1.22Zm0-2.449h-1.22V75.093h1.22Zm0-2.448h-1.22v-1.37h1.22Zm0-2.448h-1.22V70.194h1.22Zm0-2.221h-1.22v-1.37h1.22Zm0-2.448h-1.22v-1.37h1.22Zm0-2.449h-1.22v-1.37h1.22Zm0-2.448h-1.22v-1.37h1.22Zm0-2.449h-1.22V58.18h1.22Zm0-2.448h-1.22v-1.37h1.22Zm0-2.448h-1.22V53.282h1.22Zm0-2.449h-1.22v-1.37h1.22Zm0-2.66h-1.22v-1.37h1.22Zm0-2.448h-1.22v-1.37h1.22Zm0-2.337h-1.22V43.389h1.22Zm0-2.448h-1.22V40.94h1.22Zm0-2.448h-1.22V38.49h1.22Zm0-2.448h-1.22V36.042h1.22Zm0-2.448h-1.22v-1.37h1.22Zm0-2.449h-1.22V31.146h1.22Zm0-2.448h-1.22V28.7h1.22Zm0-2.448h-1.22V26.247h1.22Zm0-2.221h-1.22v-1.37h1.22Zm0-2.448h-1.22v-1.37h1.22Zm0-2.449h-1.22V19.13h1.22Zm0-2.448h-1.22v-1.37h1.22Zm0-2.448h-1.22v-1.37h1.22Zm0-2.448h-1.22v-1.37h1.22Zm0-2.449h-1.22V9.335h1.22Zm0-2.448h-1.22V6.887h1.22Zm2.069,70.655h-1.22v-1.37h1.22Zm0-2.449h-1.22V75.093h1.22Zm0-2.448h-1.22v-1.37h1.22Zm0-2.448h-1.22V70.194h1.22Zm0-2.221H50.293v-1.37h1.218Zm0-2.448H50.293v-1.37h1.218Zm0-2.449H50.293v-1.37h1.218Zm0-2.448H50.293v-1.37h1.218Zm0-2.449H50.293V58.18h1.218Zm0-2.448H50.293v-1.37h1.218Zm0-2.448H50.293V53.282h1.218Zm0-2.449H50.293v-1.37h1.218Zm0-2.66h-1.22v-1.37h1.22Zm0-2.448h-1.22v-1.37h1.22Zm0-2.337h-1.22V43.389h1.22Zm0-2.448h-1.22V40.94h1.22Zm0-2.448h-1.22V38.49h1.22Zm0-2.448h-1.22V36.042h1.22Zm0-2.448h-1.22v-1.37h1.22Zm0-2.449h-1.22V31.146h1.22Zm0-2.448h-1.22V28.7h1.22Zm0-2.448h-1.22V26.247h1.22Zm0-2.221H50.293v-1.37h1.218Zm0-2.448H50.293v-1.37h1.218Zm0-2.449H50.293V19.13h1.218Zm0-2.448H50.293v-1.37h1.218Zm0-2.448H50.293v-1.37h1.218Zm0-2.448H50.293v-1.37h1.218Zm0-2.449H50.293V9.335h1.218Zm0-2.448H50.293V6.887h1.218ZM53.58,78.911H52.36v-1.37h1.22Zm0-2.449H52.36V75.093h1.22Zm0-2.448H52.36v-1.37h1.22Zm0-2.448H52.36V70.194h1.22Zm0-22.021H52.36v-1.37h1.22Zm0-2.448H52.36v-1.37h1.22Zm0-2.337H52.36V43.389h1.22Zm0-2.448H52.36V40.94h1.22Zm0-2.448H52.36V38.49h1.22Zm0-2.448H52.36V36.042h1.22Zm0-2.448H52.36v-1.37h1.22Zm0-2.449H52.36V31.146h1.22Zm0-2.448H52.36V28.7h1.22Zm0-2.448H52.36V26.247h1.22Z" transform="translate(-7.235 -1.376)"/><path class="a" d="M1.234,14.172V86.76H17.779V14.172Zm12.835,1.54h1.218V17.17H14.069Zm0,2.607h1.218v1.458H14.069Zm0,2.608h1.218v1.458H14.069Zm0,2.607h1.218v1.458H14.069Zm0,2.607h1.218V27.6H14.069Zm0,2.607h1.218V30.2H14.069Zm0,2.608h1.218v1.458H14.069Zm0,2.607h1.218v1.458H14.069ZM9.931,62.147h1.218v1.459H9.931Zm0,2.608h1.218v1.458H9.931Zm0,2.608h1.218V68.82H9.931Zm0,2.607h1.218v1.458H9.931Zm0,2.607h1.218v1.459H9.931Zm0,2.607h1.218v1.459H9.931ZM7.862,15.712H9.08V17.17H7.862Zm0,2.607H9.08v1.458H7.862Zm0,2.608H9.08v1.458H7.862Zm0,2.607H9.08v1.458H7.862Zm0,2.607H9.08V27.6H7.862Zm0,2.607H9.08V30.2H7.862Zm0,2.608H9.08v1.458H7.862Zm0,2.607H9.08v1.458H7.862Zm0,2.363H9.08v1.459H7.862Zm0,2.608H9.08v1.458H7.862Zm0,2.608H9.08V43H7.862Zm0,2.607H9.08V45.6H7.862Zm0,2.607H9.08v1.459H7.862Zm0,2.607H9.08v1.459H7.862Zm0,2.608H9.08v1.458H7.862Zm0,2.607H9.08V56.03H7.862Zm0,2.487H9.08v1.458H7.862Zm0,2.607H9.08v1.458H7.862ZM3.724,62.147H4.942v1.459H3.724Zm0,2.608H4.942v1.458H3.724Zm0,2.608H4.942V68.82H3.724Zm0,2.607H4.942v1.458H3.724Zm0,2.607H4.942v1.459H3.724Zm0,2.607H4.942v1.459H3.724Zm1.22,9.332H3.724V83.057h1.22Zm0-2.607H3.724V80.45h1.22Zm0-2.607H3.724V77.842h1.22Zm0-18.176H3.724V59.667h1.22Zm0-2.606H3.724V57.061h1.22Zm0-2.488H3.724V54.574h1.22Zm0-2.607H3.724V51.967h1.22Zm0-2.607H3.724V49.358h1.22Zm0-2.607H3.724V46.752h1.22Zm0-2.608H3.724V44.145h1.22Zm0-2.608H3.724V41.539h1.22Zm0-2.607H3.724V38.931h1.22Zm0-2.606H3.724V36.324h1.22Zm0-2.365H3.724V33.96h1.22Zm0-2.607H3.724V31.354h1.22Zm0-2.607H3.724V28.746h1.22Zm0-2.607H3.724V26.14h1.22Zm0-2.608H3.724V23.533h1.22Zm0-2.607H3.724V20.926h1.22Zm0-2.607H3.724V18.319h1.22Zm0-2.607H3.724V15.712h1.22ZM7.013,84.514H5.793V83.057H7.011v1.458Zm0-2.607H5.793V80.45H7.011v1.458Zm0-2.607H5.793V77.842H7.011V79.3Zm0-2.659H5.792V75.182h1.22v1.459Zm0-2.607H5.792V72.576h1.22v1.459Zm0-2.608H5.792V69.969h1.22v1.458Zm0-2.608H5.792V67.362h1.22V68.82Zm0-2.607H5.792V64.755h1.22v1.458Zm0-2.606H5.792V62.148h1.22v1.459Zm0-2.483H5.793V59.667H7.011v1.458Zm0-2.606H5.793V57.061H7.011v1.458Zm0-2.488H5.793V54.574H7.011v1.458Zm0-2.607H5.793V51.967H7.011v1.458Zm0-2.607H5.793V49.358H7.011v1.459Zm0-2.607H5.793V46.752H7.011v1.459Zm0-2.608H5.793V44.145H7.011V45.6Zm0-2.608H5.793V41.539H7.011V43Zm0-2.607H5.793V38.931H7.011v1.458Zm0-2.606H5.793V36.324H7.011v1.459Zm0-2.365H5.793V33.96H7.011v1.458Zm0-2.607H5.793V31.354H7.011v1.458Zm0-2.607H5.793V28.746H7.011v1.459Zm0-2.607H5.793V26.14H7.011V27.6Zm0-2.608H5.793V23.533H7.011v1.458Zm0-2.607H5.793V20.926H7.011v1.458Zm0-2.607H5.793V18.319H7.011v1.458Zm0-2.608H5.793V15.712H7.011V17.17ZM9.08,84.514H7.862V83.057H9.08Zm0-2.607H7.862V80.45H9.08Zm0-2.607H7.862V77.842H9.08Zm0-2.659H7.862V75.182h1.22Zm0-2.607H7.862V72.576h1.22Zm0-2.608H7.862V69.969h1.22Zm0-2.608H7.862V67.362h1.22Zm0-2.607H7.862V64.755h1.22Zm0-2.606H7.862V62.148h1.22Zm2.069,20.906H9.931V83.057h1.22Zm0-2.607H9.931V80.45h1.22Zm0-2.607H9.931V77.842h1.22Zm0-18.176H9.931V59.667h1.22Zm0-2.606H9.931V57.061h1.22Zm0-2.488H9.931V54.574h1.22Zm0-2.607H9.931V51.967h1.22Zm0-2.607H9.931V49.358h1.22Zm0-2.607H9.931V46.752h1.22Zm0-2.608H9.931V44.145h1.22Zm0-2.608H9.931V41.539h1.22Zm0-2.607H9.931V38.931h1.22Zm0-2.606H9.931V36.324h1.22Zm0-2.365H9.931V33.96h1.22Zm0-2.607H9.931V31.354h1.22Zm0-2.607H9.931V28.746h1.22Zm0-2.607H9.931V26.14h1.22Zm0-2.608H9.931V23.533h1.22Zm0-2.607H9.931V20.926h1.22Zm0-2.607H9.931V18.319h1.22Zm0-2.608H9.931V15.712h1.22Zm2.068,67.344H12V83.057h1.22Zm0-2.607H12V80.45h1.22Zm0-2.607H12V77.842h1.22Zm0-2.659H12V75.182h1.22Zm0-2.607H12V72.576h1.22Zm0-2.608H12V69.969h1.22Zm0-2.608H12V67.362h1.22Zm0-2.607H12V64.755h1.22Zm0-2.606H12V62.148h1.22Zm0-2.483H12V59.667h1.22Zm0-2.606H12V57.061h1.22Zm0-2.488H12V54.574h1.22Zm0-2.607H12V51.967h1.22Zm0-2.607H12V49.358h1.22Zm0-2.607H12V46.752h1.22Zm0-2.608H12V44.145h1.22Zm0-2.608H12V41.539h1.22Zm0-2.607H12V38.931h1.22Zm0-2.606H12V36.324h1.22Zm0-2.365H12V33.96h1.218Zm0-2.607H12V31.354h1.218Zm0-2.607H12V28.746h1.218Zm0-2.607H12V26.14h1.218Zm0-2.608H12V23.533h1.218Zm0-2.607H12V20.926h1.218Zm0-2.607H12V18.319h1.218Zm0-2.608H12V15.712h1.218Zm2.07,67.344h-1.22V83.057h1.22Zm0-2.607h-1.22V80.45h1.22Zm0-2.607h-1.22V77.842h1.22Zm0-2.659h-1.22V75.182h1.22Zm0-2.607h-1.22V72.576h1.22Zm0-2.608h-1.22V69.969h1.22Zm0-2.608h-1.22V67.362h1.22Zm0-2.607h-1.22V64.755h1.22Zm0-2.606h-1.22V62.148h1.22Zm0-2.483h-1.22V59.667h1.22Zm0-2.606h-1.22V57.061h1.22Zm0-2.488h-1.22V54.574h1.22Zm0-2.607h-1.22V51.967h1.22Zm0-2.607h-1.22V49.358h1.22Zm0-2.607h-1.22V46.752h1.22Zm0-2.608h-1.22V44.145h1.22Zm0-2.608h-1.22V41.539h1.22Zm0-2.607h-1.22V38.931h1.22Zm0-2.606h-1.22V36.324h1.22Z" transform="translate(-1.234 -7.021)"/><path class="a" d="M48.775,28.067v79.644h8.267V28.067Zm2.208,76.749h-.666v-1.935h.666Zm0-3.459h-.666V99.421h.666Zm0-3.3h-.666V96.121h.666Zm0-3.458h-.666V92.663h.666Zm0-3.459h-.666V89.2h.666Zm0-5.026h-.666V84.177h.666Zm0-3.459h-.666V80.717h.666Zm0-3.3h-.666V77.417h.666Zm0-3.459h-.666V73.958h.666Zm0-3.458h-.666V70.5h.666Zm0-6.4h-.666V64.1h.666Zm0-3.458h-.666V60.641h.666Zm0-3.3h-.666V57.34h.666Zm0-3.458h-.666V53.88h.666Zm0-3.46h-.666V50.419h.666Zm0-6.206h-.666V44.214h.666Zm0-3.458h-.666V40.756h.666Zm0-3.3h-.666V37.455h.666Zm0-3.459h-.666V34h.666Zm0-3.459h-.666V30.534h.666Zm1.129,72.345h-.665v-1.935h.665Zm0-3.459h-.665V99.421h.665Zm0-3.3h-.665V96.121h.665Zm0-3.458h-.665V92.663h.665Zm0-3.459h-.665V89.2h.665Zm0-5.026h-.665V84.177h.665Zm0-3.459h-.665V80.717h.665Zm0-3.3h-.665V77.417h.665Zm0-3.459h-.665V73.958h.665Zm0-3.458h-.665V70.5h.665Zm0-6.4h-.665V64.1h.665Zm0-3.458h-.665V60.641h.665Zm0-3.3h-.665V57.34h.665Zm0-3.458h-.665V53.88h.665Zm0-3.46h-.665V50.419h.665Zm0-6.206h-.665V44.214h.665Zm0-3.458h-.665V40.756h.665Zm0-3.3h-.665V37.455h.665Zm0-3.459h-.665V34h.665Zm0-3.459h-.665V30.534h.665Zm1.128,72.345h-.665v-1.935h.665Zm0-3.459h-.665V99.421h.665Zm0-3.3h-.665V96.121h.665Zm0-3.458h-.665V92.663h.665Zm0-3.459h-.665V89.2h.665Zm0-5.026h-.665V84.177h.665Zm0-3.459h-.665V80.717h.665Zm0-3.3h-.665V77.417h.665Zm0-3.459h-.665V73.958h.665Zm0-3.458h-.665V70.5h.665Zm0-6.4h-.665V64.1h.665Zm0-3.458h-.665V60.641h.665Zm0-3.3h-.665V57.34h.665Zm0-3.458h-.665V53.88h.665Zm0-3.46h-.665V50.419h.665Zm0-6.206h-.665V44.214h.665Zm0-3.458h-.665V40.756h.665Zm0-3.3h-.665V37.455h.665Zm0-3.459h-.665V34h.665Zm0-3.459h-.665V30.534h.665Zm1.13,72.345H53.7v-1.935h.666Zm0-3.459H53.7V99.421h.666Zm0-3.3H53.7V96.121h.666Zm0-3.458H53.7V92.663h.666Zm0-3.459H53.7V89.2h.666Zm0-5.026H53.7V84.177h.666Zm0-3.459H53.7V80.717h.666Zm0-3.3H53.7V77.417h.666Zm0-3.459H53.7V73.958h.666Zm0-3.458H53.7V70.5h.666Zm0-6.4H53.7V64.1h.666Zm0-3.458H53.7V60.641h.666Zm0-3.3H53.7V57.34h.666Zm0-3.458H53.7V53.88h.666Zm0-3.46H53.7V50.419h.666Zm0-6.206H53.7V44.214h.666Zm0-3.458H53.7V40.756h.666Zm0-3.3H53.7V37.455h.666Zm0-3.459H53.7V34h.666Zm0-3.459H53.7V30.534h.666ZM55.5,104.816h-.666v-1.935H55.5Zm0-3.459h-.666V99.421H55.5Zm0-3.3h-.666V96.121H55.5Zm0-3.458h-.666V92.663H55.5Zm0-3.459h-.666V89.2H55.5Zm0-5.026h-.666V84.177H55.5Zm0-3.459h-.666V80.717H55.5Zm0-3.3h-.666V77.417H55.5Zm0-3.459h-.666V73.958H55.5Zm0-3.458h-.666V70.5H55.5Zm0-6.4h-.666V64.1H55.5Zm0-3.458h-.666V60.641H55.5Zm0-3.3h-.666V57.34H55.5Zm0-3.458h-.666V53.88H55.5Zm0-3.46h-.666V50.419H55.5Zm0-6.206h-.666V44.214H55.5Zm0-3.458h-.666V40.756H55.5Zm0-3.3h-.666V37.455H55.5Zm0-3.459h-.666V34H55.5Zm0-3.459h-.666V30.534H55.5Z" transform="translate(-2.214 -28.067)"/><path class="a" d="M75.406,18.381V16.535H63.041v1.846H60.516V85.806H77.931V18.381Zm-1.618,1.631h1.218v1.434H73.787Zm0,2.563h1.218v1.434H73.787Zm0,2.564h1.218v1.434H73.787Zm0,2.563h1.218v1.434H73.787Zm0,2.563h1.218V31.7H73.787Zm0,2.563h1.218v1.434H73.787Zm0,2.564h1.218v1.434H73.787Zm0,2.563h1.218v1.434H73.787ZM64.662,80.7h-1.22V79.265h1.22Zm0-2.583h-1.22V76.682h1.22Zm0-2.583h-1.22V74.1h1.22Zm0-2.583h-1.22V71.517h1.22Zm0-2.583h-1.22V68.934h1.22Zm0-2.583h-1.22V66.352h1.22Zm0-3.12h-1.22V63.231h1.22Zm0-2.563h-1.22V60.668h1.22Zm0-2.446h-1.22V58.223h1.22Zm0-2.563h-1.22V55.66h1.22Zm0-2.563h-1.22V53.1h1.22Zm0-2.563h-1.22V50.532h1.22Zm0-2.565h-1.22V47.969h1.22Zm0-2.563h-1.22V45.406h1.22Zm0-2.563h-1.22V42.842h1.22Zm0-2.563h-1.22V40.278h1.22Zm0-2.325h-1.22V37.955h1.22Zm0-2.563h-1.22V35.392h1.22Zm0-2.564h-1.22V32.828h1.22Zm0-2.562h-1.22V30.266h1.22Zm0-2.564h-1.22V27.7h1.22Zm0-2.563h-1.22V25.139h1.22Zm0-2.563h-1.22V22.576h1.22Zm0-2.563h-1.22V20.012h1.22ZM66.73,80.7H65.512V79.265H66.73Zm0-2.583H65.512V76.682H66.73Zm0-2.583H65.512V74.1H66.73Zm0-2.583H65.512V71.517H66.73Zm0-2.583H65.512V68.934H66.73Zm0-2.583H65.512V66.352H66.73Zm0-3.12H65.512V63.231H66.73Zm0-2.563H65.512V60.668H66.73Zm0-2.446H65.512V58.223H66.73Zm0-2.563H65.512V55.66H66.73Zm0-2.563H65.512V53.1H66.73Zm0-2.563H65.512V50.532H66.73Zm0-2.565H65.512V47.969H66.73Zm0-2.563H65.512V45.406H66.73Zm0-2.563H65.512V42.842H66.73Zm0-2.563H65.512V40.278H66.73Zm0-2.325H65.512V37.955H66.73Zm0-2.563H65.512V35.392H66.73Zm0-2.564H65.512V32.828H66.73Zm0-2.562H65.512V30.266H66.73Zm0-2.564H65.512V27.7H66.73Zm0-2.563H65.512V25.139H66.73Zm0-2.563H65.512V22.576H66.73Zm0-2.564H65.512V20.012H66.73ZM68.8,80.7H67.581V79.265H68.8Zm0-2.583H67.581V76.682H68.8Zm0-2.583H67.581V74.1H68.8Zm0-2.583H67.581V71.517H68.8Zm0-2.583H67.581V68.934H68.8Zm0-2.583H67.581V66.352H68.8Zm0-3.12H67.581V63.231H68.8Zm0-2.563H67.581V60.668H68.8Zm0-2.446H67.581V58.223H68.8Zm0-2.563H67.581V55.66H68.8Zm0-2.563H67.581V53.1H68.8Zm0-2.563H67.581V50.532H68.8Zm0-2.565H67.581V47.969H68.8Zm0-2.563H67.581V45.406H68.8Zm0-2.563H67.581V42.842H68.8Zm0-2.563H67.581V40.278H68.8Zm0-2.325H67.581V37.955H68.8Zm0-2.563H67.581V35.392H68.8Zm0-2.564H67.581V32.828H68.8Zm0-2.562H67.581V30.266H68.8Zm0-2.564H67.581V27.7H68.8Zm0-2.563H67.581V25.139H68.8Zm0-2.563H67.581V22.576H68.8Zm0-2.564H67.581V20.012H68.8ZM70.869,80.7h-1.22V79.265h1.22Zm0-2.583h-1.22V76.682h1.22Zm0-2.583h-1.22V74.1h1.22Zm0-2.583h-1.22V71.517h1.22Zm0-2.583h-1.22V68.934h1.22Zm0-2.583h-1.22V66.352h1.22Zm0-3.12h-1.22V63.231h1.22Zm0-2.563h-1.22V60.668h1.22Zm0-2.446h-1.22V58.223h1.22Zm0-2.563h-1.22V55.66h1.22Zm0-2.563h-1.22V53.1h1.22Zm0-2.563h-1.22V50.532h1.22Zm0-2.565h-1.22V47.969h1.22Zm0-2.563h-1.22V45.406h1.22Zm0-2.563h-1.22V42.842h1.22Zm0-2.563h-1.22V40.278h1.22Zm0-2.325h-1.22V37.955h1.22Zm0-2.563h-1.22V35.392h1.22Zm0-2.564h-1.22V32.828h1.22Zm0-2.562h-1.22V30.266h1.22Zm0-2.564h-1.22V27.7h1.22Zm0-2.563h-1.22V25.139h1.22Zm0-2.563h-1.22V22.576h1.22Zm0-2.564h-1.22V20.012h1.22ZM72.937,80.7h-1.22V79.265h1.22Zm0-2.583h-1.22V76.682h1.22Zm0-2.583h-1.22V74.1h1.22Zm0-2.583h-1.22V71.517h1.22Zm0-2.583h-1.22V68.934h1.22Zm0-2.583h-1.22V66.352h1.22Zm0-3.12h-1.22V63.231h1.22Zm0-2.563h-1.22V60.668h1.22Zm0-2.446h-1.22V58.223h1.22Zm0-2.563h-1.22V55.66h1.22Zm0-2.563h-1.22V53.1h1.22Zm0-2.563h-1.22V50.532h1.22Zm0-2.565h-1.22V47.969h1.22Zm0-2.563h-1.22V45.406h1.22Zm0-2.563h-1.22V42.842h1.22Zm0-2.563h-1.22V40.278h1.22Zm0-2.325H71.718V37.955h1.218Zm0-2.563H71.718V35.392h1.218Zm0-2.564H71.718V32.828h1.218Zm0-2.562H71.718V30.266h1.218Zm0-2.564H71.718V27.7h1.218Zm0-2.563H71.718V25.139h1.218Zm0-2.563H71.718V22.576h1.218Zm0-2.564H71.718V20.012h1.218ZM75.007,80.7h-1.22V79.265h1.22Zm0-2.583h-1.22V76.682h1.22Zm0-2.583h-1.22V74.1h1.22Zm0-2.583h-1.22V71.517h1.22Zm0-2.583h-1.22V68.934h1.22Zm0-2.583h-1.22V66.352h1.22Zm0-3.12h-1.22V63.231h1.22Zm0-2.563h-1.22V60.668h1.22Zm0-2.446h-1.22V58.223h1.22Zm0-2.563h-1.22V55.66h1.22Zm0-2.563h-1.22V53.1h1.22Zm0-2.563h-1.22V50.532h1.22Zm0-2.565h-1.22V47.969h1.22Zm0-2.563h-1.22V45.406h1.22Zm0-2.563h-1.22V42.842h1.22Zm0-2.563h-1.22V40.278h1.22Z" transform="translate(-11.346 -6.068)"/><path class="a" d="M73.974,14.172V86.76H105.6V14.172Zm24.532,1.54h2.329V17.17H98.506Zm0,2.607h2.329v1.458H98.506Zm0,2.608h2.329v1.458H98.506Zm0,2.607h2.329v1.458H98.506Zm0,2.607h2.329V27.6H98.506Zm0,2.607h2.329V30.2H98.506Zm0,2.608h2.329v1.458H98.506Zm0,2.607h2.329v1.458H98.506ZM90.6,62.147h2.329v1.459H90.6Zm0,2.608h2.329v1.458H90.6Zm0,2.608h2.329V68.82H90.6Zm0,2.607h2.329v1.458H90.6Zm0,2.607h2.329v1.459H90.6Zm0,2.607h2.329v1.459H90.6Zm-3.955-59.47H88.97V17.17H86.641Zm0,2.607H88.97v1.458H86.641Zm0,2.608H88.97v1.458H86.641Zm0,2.607H88.97v1.458H86.641Zm0,2.607H88.97V27.6H86.641Zm0,2.607H88.97V30.2H86.641Zm0,2.608H88.97v1.458H86.641Zm0,2.607H88.97v1.458H86.641Zm0,2.363H88.97v1.459H86.641Zm0,2.608H88.97v1.458H86.641Zm0,2.608H88.97V43H86.641Zm0,2.607H88.97V45.6H86.641Zm0,2.607H88.97v1.459H86.641Zm0,2.607H88.97v1.459H86.641Zm0,2.608H88.97v1.458H86.641Zm0,2.607H88.97V56.03H86.641Zm0,2.487H88.97v1.458H86.641Zm0,2.607H88.97v1.458H86.641Zm-7.91,2.481H81.06v1.459H78.731Zm0,2.608H81.06v1.458H78.731Zm0,2.608H81.06V68.82H78.731Zm0,2.607H81.06v1.458H78.731Zm0,2.607H81.06v1.459H78.731Zm0,2.607H81.06v1.459H78.731Zm2.332,9.332H78.731V83.057h2.332Zm0-2.607H78.731V80.45h2.332Zm0-2.607H78.731V77.842h2.332Zm0-18.176H78.731V59.667h2.332Zm0-2.606H78.731V57.061h2.332Zm0-2.488H78.731V54.574h2.332Zm0-2.607H78.731V51.967h2.332Zm0-2.607H78.731V49.358h2.332Zm0-2.607H78.731V46.752h2.332Zm0-2.608H78.731V44.145h2.332Zm0-2.608H78.731V41.539h2.332Zm0-2.607H78.731V38.931h2.332Zm0-2.606H78.731V36.324h2.332Zm0-2.365H78.731V33.96h2.332Zm0-2.607H78.731V31.354h2.332Zm0-2.607H78.731V28.746h2.332Zm0-2.607H78.731V26.14h2.332Zm0-2.608H78.731V23.533h2.332Zm0-2.607H78.731V20.926h2.332Zm0-2.607H78.731V18.319h2.332Zm0-2.607H78.731V15.712h2.332Zm3.955,67.343H82.689V83.057h2.329Zm0-2.607H82.689V80.45h2.329Zm0-2.607H82.689V77.842h2.329Zm0-2.659H82.686V75.182h2.332Zm0-2.607H82.686V72.576h2.332Zm0-2.608H82.686V69.969h2.332Zm0-2.608H82.686V67.362h2.332Zm0-2.607H82.686V64.755h2.332Zm0-2.606H82.686V62.148h2.332Zm0-2.483H82.689V59.667h2.329Zm0-2.606H82.689V57.061h2.329Zm0-2.488H82.689V54.574h2.329Zm0-2.607H82.689V51.967h2.329Zm0-2.607H82.689V49.358h2.329Zm0-2.607H82.689V46.752h2.329Zm0-2.608H82.689V44.145h2.329Zm0-2.608H82.689V41.539h2.329Zm0-2.607H82.689V38.931h2.329Zm0-2.606H82.689V36.324h2.329Zm0-2.365H82.689V33.96h2.329Zm0-2.607H82.689V31.354h2.329Zm0-2.607H82.689V28.746h2.329Zm0-2.607H82.689V26.14h2.329Zm0-2.608H82.689V23.533h2.329Zm0-2.607H82.689V20.926h2.329Zm0-2.607H82.689V18.319h2.329Zm0-2.608H82.689V15.712h2.329ZM88.97,84.514H86.641V83.057H88.97Zm0-2.607H86.641V80.45H88.97Zm0-2.607H86.641V77.842H88.97Zm0-2.659H86.641V75.182h2.332Zm0-2.607H86.641V72.576h2.332Zm0-2.608H86.641V69.969h2.332Zm0-2.608H86.641V67.362h2.332Zm0-2.607H86.641V64.755h2.332Zm0-2.606H86.641V62.148h2.332Zm3.955,20.906H90.6V83.057h2.332Zm0-2.607H90.6V80.45h2.332Zm0-2.607H90.6V77.842h2.332Zm0-18.176H90.6V59.667h2.332Zm0-2.606H90.6V57.061h2.332Zm0-2.488H90.6V54.574h2.332Zm0-2.607H90.6V51.967h2.332Zm0-2.607H90.6V49.358h2.332Zm0-2.607H90.6V46.752h2.332Zm0-2.608H90.6V44.145h2.332Zm0-2.608H90.6V41.539h2.332Zm0-2.607H90.6V38.931h2.332Zm0-2.606H90.6V36.324h2.332Zm0-2.365H90.6V33.96h2.332Zm0-2.607H90.6V31.354h2.332Zm0-2.607H90.6V28.746h2.332Zm0-2.607H90.6V26.14h2.332Zm0-2.608H90.6V23.533h2.332Zm0-2.607H90.6V20.926h2.332Zm0-2.607H90.6V18.319h2.332Zm0-2.608H90.6V15.712h2.332Zm3.955,67.344H94.551V83.057h2.332Zm0-2.607H94.551V80.45h2.332Zm0-2.607H94.551V77.842h2.332Zm0-2.659H94.551V75.182h2.332Zm0-2.607H94.551V72.576h2.332Zm0-2.608H94.551V69.969h2.332Zm0-2.608H94.551V67.362h2.332Zm0-2.607H94.551V64.755h2.332Zm0-2.606H94.551V62.148h2.332Zm0-2.483H94.551V59.667h2.332Zm0-2.606H94.551V57.061h2.332Zm0-2.488H94.551V54.574h2.332Zm0-2.607H94.551V51.967h2.332Zm0-2.607H94.551V49.358h2.332Zm0-2.607H94.551V46.752h2.332Zm0-2.608H94.551V44.145h2.332Zm0-2.608H94.551V41.539h2.332Zm0-2.607H94.551V38.931h2.332Zm0-2.606H94.551V36.324h2.332Zm0-2.365H94.553V33.96h2.329Zm0-2.607H94.553V31.354h2.329Zm0-2.607H94.553V28.746h2.329Zm0-2.607H94.553V26.14h2.329Zm0-2.608H94.553V23.533h2.329Zm0-2.607H94.553V20.926h2.329Zm0-2.607H94.553V18.319h2.329Zm0-2.608H94.553V15.712h2.329Zm3.955,67.344H98.506V83.057h2.332Zm0-2.607H98.506V80.45h2.332Zm0-2.607H98.506V77.842h2.332Zm0-2.659H98.506V75.182h2.332Zm0-2.607H98.506V72.576h2.332Zm0-2.608H98.506V69.969h2.332Zm0-2.608H98.506V67.362h2.332Zm0-2.607H98.506V64.755h2.332Zm0-2.606H98.506V62.148h2.332Zm0-2.483H98.506V59.667h2.332Zm0-2.606H98.506V57.061h2.332Zm0-2.488H98.506V54.574h2.332Zm0-2.607H98.506V51.967h2.332Zm0-2.607H98.506V49.358h2.332Zm0-2.607H98.506V46.752h2.332Zm0-2.608H98.506V44.145h2.332Zm0-2.608H98.506V41.539h2.332Zm0-2.607H98.506V38.931h2.332Zm0-2.606H98.506V36.324h2.332Z" transform="translate(-19.846 -7.021)"/><path class="a" d="M86.615,28.067v73.289L100.5,107.71V28.067Zm3.71,76.748H89.208V102.88h1.118Zm0-3.459H89.208V99.421h1.118Zm0-3.3H89.208V96.12h1.118Zm0-3.458H89.208V92.662h1.118Zm0-3.459H89.208V89.2h1.118Zm0-5.026H89.208V84.176h1.118Zm0-3.459H89.208V80.717h1.118Zm0-3.3H89.208V77.416h1.118Zm0-3.459H89.208V73.957h1.118Zm0-3.458H89.208V70.5h1.118Zm0-6.4H89.208V64.1h1.118Zm0-3.458H89.208V60.641h1.118Zm0-3.3H89.208V57.34h1.118Zm0-3.458H89.208V53.88h1.118Zm0-3.46H89.208V50.418h1.118Zm0-6.206H89.208V44.213h1.118Zm0-3.458H89.208V40.755h1.118Zm0-3.3H89.208V37.455h1.118Zm0-3.459H89.208V34h1.118Zm0-3.459H89.208V30.534h1.118Zm1.894,72.344H91.1V102.88h1.115Zm0-3.459H91.1V99.421h1.115Zm0-3.3H91.1V96.12h1.115Zm0-3.458H91.1V92.662h1.115Zm0-3.459H91.1V89.2h1.115Zm0-5.026H91.1V84.176h1.115Zm0-3.459H91.1V80.717h1.115Zm0-3.3H91.1V77.416h1.115Zm0-3.459H91.1V73.957h1.115Zm0-3.458H91.1V70.5h1.115Zm0-6.4H91.1V64.1h1.115Zm0-3.458H91.1V60.641h1.115Zm0-3.3H91.1V57.34h1.115Zm0-3.458H91.1V53.88h1.115Zm0-3.46H91.1V50.418h1.115Zm0-6.206H91.1V44.213h1.115Zm0-3.458H91.1V40.755h1.115Zm0-3.3H91.1V37.455h1.115Zm0-3.459H91.1V34h1.115Zm0-3.459H91.1V30.534h1.115Zm1.9,72.344H93V102.88h1.118Zm0-3.459H93V99.421h1.118Zm0-3.3H93V96.12h1.118Zm0-3.458H93V92.662h1.118Zm0-3.459H93V89.2h1.118Zm0-5.026H93V84.176h1.118Zm0-3.459H93V80.717h1.118Zm0-3.3H93V77.416h1.118Zm0-3.459H93V73.957h1.118Zm0-3.458H93V70.5h1.118Zm0-6.4H93V64.1h1.118Zm0-3.458H93V60.641h1.118Zm0-3.3H93V57.34h1.118Zm0-3.458H93V53.88h1.118Zm0-3.46H93V50.418h1.118Zm0-6.206H93V44.213h1.118Zm0-3.458H93V40.755h1.118Zm0-3.3H93V37.455h1.118Zm0-3.459H93V34h1.118Zm0-3.459H93V30.534h1.118Zm1.9,72.344H94.894V102.88h1.118Zm0-3.459H94.894V99.421h1.118Zm0-3.3H94.894V96.12h1.118Zm0-3.458H94.894V92.662h1.118Zm0-3.459H94.894V89.2h1.118Zm0-5.026H94.894V84.176h1.118Zm0-3.459H94.894V80.717h1.118Zm0-3.3H94.894V77.416h1.118Zm0-3.459H94.894V73.957h1.118Zm0-3.458H94.894V70.5h1.118Zm0-6.4H94.894V64.1h1.118Zm0-3.458H94.894V60.641h1.118Zm0-3.3H94.894V57.34h1.118Zm0-3.458H94.894V53.88h1.118Zm0-3.46H94.894V50.418h1.118Zm0-6.206H94.894V44.213h1.118Zm0-3.458H94.894V40.755h1.118Zm0-3.3H94.894V37.455h1.118Zm0-3.459H94.894V34h1.118Zm0-3.459H94.894V30.534h1.118Zm1.894,72.344H96.788V102.88h1.118Zm0-3.459H96.788V99.421h1.118Zm0-3.3H96.788V96.12h1.118Zm0-3.458H96.788V92.662h1.118Zm0-3.459H96.788V89.2h1.118Zm0-5.026H96.788V84.176h1.118Zm0-3.459H96.788V80.717h1.118Zm0-3.3H96.788V77.416h1.118Zm0-3.459H96.788V73.957h1.118Zm0-3.458H96.788V70.5h1.118Zm0-6.4H96.788V64.1h1.118Zm0-3.458H96.788V60.641h1.118Zm0-3.3H96.788V57.34h1.118Zm0-3.458H96.788V53.88h1.118Zm0-3.46H96.788V50.418h1.118Zm0-6.206H96.788V44.213h1.118Zm0-3.458H96.788V40.755h1.118Zm0-3.3H96.788V37.455h1.118Zm0-3.459H96.788V34h1.118Zm0-3.459H96.788V30.534h1.118Z" transform="translate(-14.744 -28.067)"/></g></svg>