<svg xmlns="http://www.w3.org/2000/svg" width="68.821" height="61.661" viewBox="0 0 68.821 61.661"><defs><style>.a{fill:#2699fb;}</style></defs><path class="a" d="M74.131,11.81H5.31V53.433H25L20.779,73.471h4.9L27.811,63.36H51.63l2.132,10.111h4.9L54.438,53.433H74.131Zm-1.408,1.332v3.888h-66V13.142Zm0,4.421V48.4h-66V17.564Zm-48.2,54.575h-2.03l3.943-18.705h2.03Zm3.568-10.111L29.9,53.433H49.538l1.811,8.594ZM56.947,72.139h-2.03L50.974,53.433H53ZM54.159,52.1H6.718V48.932h66V52.1Z" transform="translate(-5.31 -11.81)"/><rect class="a" width="40.99" height="0.875" transform="translate(13.835 32.179)"/><path class="a" d="M34.041,75.24a.79.79,0,0,0,.637-.507c5.81,5.874,9.526,9.57,11.111,11.044-.01.1-.016.2-.016.3a2.259,2.259,0,0,0,.43,1.5.562.562,0,0,0,.915,0,2.259,2.259,0,0,0,.43-1.5,3.08,3.08,0,0,0-.019-.332c1.482-1.456,4.834-4.969,10.013-10.5.185.406.464.621.75.574s.541-.347.685-.806l6.88,4.658a1.927,1.927,0,0,0,.563,1.476c.329.24.7.093.952-.373a2.764,2.764,0,0,0,.2-1.773l8.355-15.274c.3.555.771.637,1.123.2a2.582,2.582,0,0,0,.323-2.009c-.163-.727-.58-1.139-1-.983s-.714.835-.714,1.623a2.856,2.856,0,0,0,.026.381L67.27,78.306a.676.676,0,0,0-.536-.341c-.325.006-.621.342-.774.875l-6.854-4.667c-.024-.879-.415-1.568-.888-1.568s-.864.689-.888,1.568c0,.091.006.182.014.271-3.578,3.818-8.232,8.748-10.022,10.532-.169-.357-.413-.56-.668-.555s-.5.215-.663.577C44.085,83.187,38.868,77.96,34.9,73.954a3.2,3.2,0,0,0,.024-.376c0-.914-.4-1.654-.89-1.653s-.889.743-.888,1.656.4,1.653.891,1.65Z" transform="translate(-20.973 -50.86)"/></svg>