<svg xmlns="http://www.w3.org/2000/svg" width="63" height="62.966" viewBox="0 0 63 62.966"><defs><style>.a{fill:#2699fb;fill-rule:evenodd;}</style></defs><g transform="translate(-5.958 -5.981)"><g transform="translate(5.958 5.981)"><path class="a" d="M56.239,968.322a1.43,1.43,0,0,0-.163,2.846c12.625,2,22.187,12.392,22.187,24.887a23.984,23.984,0,0,1-1.676,8.846,1.43,1.43,0,1,0,2.661,1.051,26.87,26.87,0,0,0,1.876-9.9c0-13.955-10.678-25.507-24.6-27.713a1.426,1.426,0,0,0-.285-.02Z" transform="translate(-19.881 -961.185)"/><path class="a" d="M63.011,1028.363a1.43,1.43,0,0,0-1.085.525,27.5,27.5,0,0,1-41.567.014,1.43,1.43,0,1,0-2.188,1.843,30.355,30.355,0,0,0,45.943-.015,1.43,1.43,0,0,0-1.1-2.367Z" transform="translate(-9.34 -978.284)"/><path class="a" d="M34.334,968.271a1.433,1.433,0,0,0-.242.019C20.045,970.4,9.239,982,9.239,996.041a26.857,26.857,0,0,0,1.788,9.67,1.43,1.43,0,1,0,2.67-1.027,23.968,23.968,0,0,1-1.6-8.643c0-12.57,9.676-23.01,22.416-24.922a1.43,1.43,0,0,0-.182-2.848Z" transform="translate(-6.892 -961.17)"/><path class="a" d="M22.207,1005.249a1.43,1.43,0,0,0-.246,2.816l6.683,1.654-21.9,11.689a1.43,1.43,0,1,0,1.341,2.526l22.284-11.89-1.788,6.616a1.43,1.43,0,1,0,2.749.76l2.593-9.633a1.485,1.485,0,0,0-.961-1.967l-10.326-2.526a1.443,1.443,0,0,0-.425-.044Z" transform="translate(-5.958 -971.701)"/><path class="a" d="M66.453,1005.248a1.421,1.421,0,0,0-.223.044l-10.3,2.526a1.431,1.431,0,0,0-1.05,1.766l2.66,9.834a1.437,1.437,0,0,0,2.771-.76l-1.788-6.616,22.217,11.868a1.43,1.43,0,1,0,1.341-2.526L60.24,1009.718l6.66-1.654a1.43,1.43,0,0,0-.291-2.816,1.455,1.455,0,0,0-.156,0Z" transform="translate(-19.874 -971.7)"/><path class="a" d="M46.855,958.343a1.486,1.486,0,0,0-1.408,1.453l-.022,23.915-5.141-4.828a1.439,1.439,0,1,0-1.967,2.1l7.555,7.063a1.366,1.366,0,0,0,1.967-.022l7.51-7.2a1.43,1.43,0,0,0-1.006-2.481,1.447,1.447,0,0,0-.983.425l-5.074,4.873.022-23.848a1.488,1.488,0,0,0-1.453-1.453Z" transform="translate(-15.049 -958.343)"/></g></g></svg>