<svg height="596pt" viewBox="-19 -19 596 596.00307" width="596pt" xmlns="http://www.w3.org/2000/svg"><path d="m279.285156 0c-70.679687-.195312-138.765625 26.597656-190.359375 74.910156l28.296875 28.304688c91.558594-84.398438 232.566406-84.398438 324.125 0l28.296875-28.304688c-51.59375-48.3125-119.679687-75.105468-190.359375-74.910156zm0 0"/><path d="m74.804688 469.746094 28.3125-28.296875c-84.398438-91.5625-84.398438-232.570313 0-324.125l-28.3125-28.300781c-99.847657 107.265624-99.847657 273.453124 0 380.722656zm0 0"/><path d="m483.765625 89.023438-28.308594 28.300781c84.394531 91.554687 84.394531 232.5625 0 324.125l28.308594 28.296875c99.847656-107.269532 99.847656-273.457032 0-380.722656zm0 0"/><path d="m469.644531 483.863281-28.296875-28.304687c-91.558594 84.398437-232.566406 84.398437-324.125 0l-28.296875 28.304687c107.265625 99.851563 273.453125 99.851563 380.71875 0zm0 0"/><path d="m169.527344 344.058594 99.78125 70.605468v-115.242187l-99.78125-70.59375zm0 0"/><path d="m381.75 209.539062-102.464844-72.5-102.464844 72.5 102.464844 72.5zm0 0"/><path d="m389.042969 228.828125-99.78125 70.59375v115.242187l99.78125-70.605468zm0 0"/></svg>